
<svg viewBox="0 0 38 38" fill="none" xmlns="http://www.w3.org/2000/svg">
<circle cx="19" cy="19" r="19" fill="white"/>
<path d="M12.2678 18.7322C11.2915 17.7559 9.70854 17.7559 8.73223 18.7322C7.75592 19.7085 7.75592 21.2915 8.73223 22.2678L12.2678 18.7322ZM16 26L14.2322 27.7678C15.2085 28.7441 16.7915 28.7441 17.7678 27.7678L16 26ZM30.7678 14.7678C31.7441 13.7915 31.7441 12.2085 30.7678 11.2322C29.7915 10.2559 28.2085 10.2559 27.2322 11.2322L30.7678 14.7678ZM8.73223 22.2678L14.2322 27.7678L17.7678 24.2322L12.2678 18.7322L8.73223 22.2678ZM17.7678 27.7678L30.7678 14.7678L27.2322 11.2322L14.2322 24.2322L17.7678 27.7678Z" fill="#4C606E"/>
</svg>
