<svg width="38" height="38" viewBox="0 0 38 38" fill="none" xmlns="http://www.w3.org/2000/svg">
<path d="M16.5894 5.71362C10.4913 5.71362 4.68189 9.28587 2.11997 15.2757C1.25397 17.2964 0.857056 19.4253 0.857056 21.482C0.857056 25.2347 2.22822 28.843 4.68189 31.6936C6.19739 33.4617 8.14589 34.905 10.4191 35.8793C12.4037 36.7453 14.4966 37.1422 16.5533 37.1422C22.6514 37.1422 28.4608 33.5699 31.0227 27.5801C31.8887 25.5594 32.2856 23.4305 32.2856 21.3738L16.5894 21.4459V5.71362Z" fill="white"/>
<path d="M33.0651 6.5718C31.5018 4.74805 29.5292 3.25927 27.1844 2.25434C25.1001 1.36107 22.9413 0.95166 20.8571 0.95166V17.1421L37.0475 17.0677C37.0103 13.1969 35.596 9.47492 33.0651 6.5718Z" fill="white"/>
</svg>
