<svg viewBox="0 0 571 348" fill="none" xmlns="http://www.w3.org/2000/svg">
<path fill-rule="evenodd" clip-rule="evenodd" d="M276.792 347C417.624 347 570.328 267.466 570.328 163.636C570.328 59.8068 485.629 -14.9536 285.678 11.0464C85.7273 37.0464 0.136719 151.214 0.136719 255.044C0.136719 358.873 135.959 347 276.792 347Z" fill="black" fill-opacity="0.1"/>
<path d="M401.792 315.75H162.208C159.332 315.75 157 318.082 157 320.958C157.017 335.333 168.667 346.983 183.042 347H380.958C395.333 346.983 406.982 335.333 407 320.958C407 318.082 404.668 315.75 401.792 315.75ZM380.958 336.583H183.042C176.422 336.575 170.522 332.405 168.307 326.167H395.692C393.478 332.405 387.578 336.575 380.958 336.583Z" fill="white"/>
<path d="M188.25 159.5C179.621 159.5 172.625 166.496 172.625 175.125V320.958H183.042V175.125C183.042 172.249 185.374 169.917 188.25 169.917H198.667V159.5H188.25Z" fill="white"/>
<path d="M375.75 159.5H365.333V169.917H375.75C378.626 169.917 380.958 172.249 380.958 175.125V320.958H391.375V175.125C391.375 166.496 384.379 159.5 375.75 159.5Z" fill="white"/>
<path d="M339.292 97H255.958C254.577 97 253.253 97.5493 252.276 98.5259L210.61 140.192C209.633 141.169 209.084 142.494 209.084 143.875V268.875C209.084 277.504 216.08 284.5 224.709 284.5H266.375V274.083H224.708C221.832 274.083 219.5 271.751 219.5 268.875V146.031L258.115 107.417H339.292C342.168 107.417 344.5 109.749 344.5 112.625V268.875C344.5 271.751 342.168 274.083 339.292 274.083H297.625V284.5H339.292C347.921 284.5 354.917 277.504 354.917 268.875V112.625C354.917 103.996 347.921 97 339.292 97Z" fill="#33BB40"/>
<path d="M250.75 102.208V133.458C250.75 136.335 248.418 138.667 245.542 138.667H235.125V149.083H245.542C254.171 149.083 261.167 142.088 261.167 133.458V102.208H250.75Z" fill="#33BB40"/>
<path d="M285.682 197.484C284.706 196.508 283.382 195.959 282.001 195.959C279.125 195.959 276.792 198.29 276.792 201.167V305.333H287.208V213.74L309.567 236.099L316.932 228.734L285.682 197.484Z" fill="#33BB40"/>
<path d="M247.064 228.736L278.312 197.487L285.678 204.853L254.429 236.102L247.064 228.736Z" fill="#33BB40"/>
<path d="M334.083 117.833H323.667V128.25H334.083V117.833Z" fill="#33BB40"/>
<path d="M313.25 117.833H302.833V128.25H313.25V117.833Z" fill="#33BB40"/>
<path d="M334.083 138.667H323.667V149.083H334.083V138.667Z" fill="#33BB40"/>
<path d="M79.3364 140H26.5691C25.1 140 23.9091 141.191 23.9091 143.502V240C23.9091 240.627 25.1 241.818 26.5691 241.818H99.4309C100.9 241.818 102.091 240.627 102.091 240V163.596C102.091 162.331 101.922 161.924 101.624 161.624L80.4673 140.467C80.1673 140.169 79.76 140 79.3364 140Z" fill="white"/>
<path d="M80.2727 140.275V161.818H101.816L80.2727 140.275Z" fill="#D7D7D7"/>
<path d="M45.7273 163.636H34.8182C33.8145 163.636 33 162.822 33 161.818C33 160.815 33.8145 160 34.8182 160H45.7273C46.7309 160 47.5455 160.815 47.5455 161.818C47.5455 162.822 46.7309 163.636 45.7273 163.636Z" fill="#8697CB"/>
<path d="M51.1818 172.727H34.8182C33.8145 172.727 33 171.913 33 170.909C33 169.905 33.8145 169.091 34.8182 169.091H51.1818C52.1855 169.091 53 169.905 53 170.909C53 171.913 52.1855 172.727 51.1818 172.727Z" fill="#8697CB"/>
<path d="M58.4545 172.727C57.9818 172.727 57.5091 172.527 57.1636 172.2C56.8364 171.855 56.6364 171.382 56.6364 170.909C56.6364 170.436 56.8364 169.964 57.1636 169.618C57.8364 168.945 59.0727 168.945 59.7454 169.618C60.0727 169.964 60.2727 170.436 60.2727 170.909C60.2727 171.382 60.0727 171.855 59.7454 172.2C59.4 172.527 58.9273 172.727 58.4545 172.727Z" fill="#8697CB"/>
<path d="M80.2727 172.727H65.7273C64.7236 172.727 63.9091 171.913 63.9091 170.909C63.9091 169.905 64.7236 169.091 65.7273 169.091H80.2727C81.2764 169.091 82.0909 169.905 82.0909 170.909C82.0909 171.913 81.2764 172.727 80.2727 172.727Z" fill="#8697CB"/>
<path d="M34.8182 200C34.3455 200 33.8727 199.8 33.5273 199.473C33.2 199.127 33 198.655 33 198.182C33 197.709 33.2 197.236 33.5273 196.891C34.2 196.218 35.4364 196.218 36.1091 196.891C36.4364 197.236 36.6364 197.691 36.6364 198.182C36.6364 198.655 36.4364 199.127 36.1091 199.473C35.7636 199.8 35.2909 200 34.8182 200Z" fill="#8697CB"/>
<path d="M56.6364 200H42.0909C41.0873 200 40.2727 199.185 40.2727 198.182C40.2727 197.178 41.0873 196.364 42.0909 196.364H56.6364C57.64 196.364 58.4545 197.178 58.4545 198.182C58.4545 199.185 57.64 200 56.6364 200Z" fill="#8697CB"/>
<path d="M91.1818 172.727H87.5454C86.5418 172.727 85.7273 171.913 85.7273 170.909C85.7273 169.905 86.5418 169.091 87.5454 169.091H91.1818C92.1854 169.091 93 169.905 93 170.909C93 171.913 92.1854 172.727 91.1818 172.727Z" fill="#8697CB"/>
<path d="M74.8182 181.818H34.8182C33.8145 181.818 33 181.004 33 180C33 178.996 33.8145 178.182 34.8182 178.182H74.8182C75.8218 178.182 76.6364 178.996 76.6364 180C76.6364 181.004 75.8218 181.818 74.8182 181.818Z" fill="#8697CB"/>
<path d="M91.1818 181.818H80.2727C79.2691 181.818 78.4545 181.004 78.4545 180C78.4545 178.996 79.2691 178.182 80.2727 178.182H91.1818C92.1855 178.182 93 178.996 93 180C93 181.004 92.1855 181.818 91.1818 181.818Z" fill="#8697CB"/>
<path d="M42.0909 190.909H34.8182C33.8145 190.909 33 190.095 33 189.091C33 188.087 33.8145 187.273 34.8182 187.273H42.0909C43.0945 187.273 43.9091 188.087 43.9091 189.091C43.9091 190.095 43.0945 190.909 42.0909 190.909Z" fill="#8697CB"/>
<path d="M67.5455 190.909H49.3636C48.36 190.909 47.5455 190.095 47.5455 189.091C47.5455 188.087 48.36 187.273 49.3636 187.273H67.5455C68.5491 187.273 69.3636 188.087 69.3636 189.091C69.3636 190.095 68.5491 190.909 67.5455 190.909Z" fill="#8697CB"/>
<path d="M91.1818 190.909H74.8182C73.8145 190.909 73 190.095 73 189.091C73 188.087 73.8145 187.273 74.8182 187.273H91.1818C92.1855 187.273 93 188.087 93 189.091C93 190.095 92.1855 190.909 91.1818 190.909Z" fill="#8697CB"/>
<path d="M99.4309 241.818H26.5691C25.1 241.818 23.9091 240.627 23.9091 239.158V210.909H102.091V239.158C102.091 240.627 100.9 241.818 99.4309 241.818Z" fill="#0096E6"/>
<path d="M54.8182 226.695C54.8182 228.202 54.6564 229.491 54.3327 230.56C54.0091 231.629 53.6 232.524 53.1018 233.245C52.6036 233.967 52.0454 234.535 51.4236 234.949C50.8018 235.364 50.2018 235.673 49.6218 235.882C49.0418 236.089 48.5109 236.222 48.0309 236.28C47.5509 236.335 47.1945 236.364 46.9636 236.364H40.0291V218.044H45.5454C47.0873 218.044 48.4418 218.289 49.6091 218.776C50.7764 219.264 51.7473 219.916 52.5182 220.727C53.2891 221.538 53.8636 222.464 54.2454 223.498C54.6273 224.535 54.8182 225.6 54.8182 226.695ZM45.9691 234.176C47.9909 234.176 49.4491 233.531 50.3436 232.238C51.2382 230.945 51.6854 229.073 51.6854 226.62C51.6854 225.858 51.5945 225.104 51.4127 224.358C51.2291 223.613 50.8782 222.938 50.3564 222.333C49.8345 221.727 49.1254 221.238 48.2309 220.865C47.3364 220.493 46.1764 220.305 44.7509 220.305H43.0109V234.176H45.9691Z" fill="white"/>
<path d="M72.9545 227.116C72.9545 228.658 72.76 230.016 72.3709 231.193C71.9818 232.369 71.4418 233.347 70.7545 234.125C70.0673 234.905 69.2636 235.493 68.3436 235.891C67.4236 236.289 66.4164 236.487 65.3236 236.487C64.2309 236.487 63.2236 236.289 62.3036 235.891C61.3836 235.493 60.58 234.905 59.8927 234.125C59.2054 233.345 58.6654 232.369 58.2764 231.193C57.8873 230.016 57.6927 228.656 57.6927 227.116C57.6927 225.576 57.8873 224.22 58.2764 223.053C58.6654 221.884 59.2036 220.911 59.8927 220.133C60.58 219.353 61.3836 218.762 62.3036 218.355C63.2236 217.947 64.2309 217.745 65.3236 217.745C66.4164 217.745 67.4236 217.947 68.3436 218.355C69.2636 218.762 70.0673 219.353 70.7545 220.133C71.4418 220.913 71.98 221.885 72.3709 223.053C72.7582 224.22 72.9545 225.575 72.9545 227.116ZM65.2473 234.053C65.86 234.053 66.4436 233.933 67 233.693C67.5545 233.453 68.0527 233.058 68.4909 232.513C68.9291 231.965 69.2745 231.249 69.5218 230.362C69.7691 229.475 69.9018 228.395 69.92 227.118C69.9036 225.875 69.7745 224.818 69.5345 223.949C69.2945 223.078 68.9636 222.362 68.54 221.798C68.1164 221.235 67.6364 220.829 67.0982 220.58C66.56 220.331 65.9927 220.207 65.3945 220.207C64.7818 220.207 64.1964 220.322 63.6418 220.555C63.0854 220.787 62.5891 221.18 62.1509 221.735C61.7109 222.291 61.3673 223.005 61.12 223.885C60.8727 224.765 60.7382 225.84 60.7218 227.116C60.7382 228.36 60.8673 229.42 61.1073 230.298C61.3473 231.176 61.6782 231.893 62.1018 232.449C62.5254 233.005 63.0054 233.409 63.5436 233.667C64.0836 233.924 64.6509 234.053 65.2473 234.053Z" fill="white"/>
<path d="M89.5582 234.5C88.8782 235.162 88.1073 235.66 87.2473 235.991C86.3854 236.324 85.4582 236.487 84.4636 236.487C83.3691 236.487 82.3636 236.289 81.4436 235.891C80.5236 235.493 79.72 234.905 79.0327 234.125C78.3454 233.345 77.8054 232.369 77.4164 231.193C77.0273 230.016 76.8327 228.656 76.8327 227.116C76.8327 225.576 77.0273 224.22 77.4164 223.053C77.8054 221.884 78.3436 220.911 79.0327 220.133C79.72 219.353 80.5273 218.762 81.4564 218.355C82.3836 217.947 83.3873 217.745 84.4636 217.745C85.4582 217.745 86.3854 217.911 87.2473 218.242C88.1091 218.575 88.8782 219.071 89.5582 219.733L87.4945 221.573C87.08 221.091 86.62 220.744 86.1145 220.529C85.6091 220.315 85.0836 220.205 84.5364 220.205C83.9236 220.205 83.3382 220.32 82.7836 220.553C82.2273 220.785 81.7309 221.178 81.2927 221.733C80.8527 222.289 80.5091 223.004 80.2618 223.884C80.0145 224.764 79.88 225.838 79.8636 227.115C79.88 228.358 80.0091 229.418 80.2491 230.296C80.4891 231.175 80.82 231.891 81.2436 232.447C81.6673 233.004 82.1473 233.407 82.6854 233.665C83.2236 233.924 83.7909 234.051 84.3891 234.051C84.9873 234.051 85.5454 233.942 86.0673 233.727C86.5891 233.513 87.0654 233.164 87.4964 232.684L89.5582 234.5Z" fill="white"/>
<path d="M507.336 177H454.569C453.1 177 451.909 178.191 451.909 180.502V277C451.909 277.627 453.1 278.818 454.569 278.818H527.431C528.9 278.818 530.091 277.627 530.091 277V200.596C530.091 199.331 529.922 198.924 529.624 198.624L508.467 177.467C508.167 177.169 507.76 177 507.336 177Z" fill="white"/>
<path d="M508.273 177.275V198.818H529.816L508.273 177.275Z" fill="#D7D7D7"/>
<path d="M527.431 278.818H454.569C453.1 278.818 451.909 277.627 451.909 276.158V247.909H530.091V276.158C530.091 277.627 528.9 278.818 527.431 278.818Z" fill="#33BB40"/>
<path d="M477.144 264.464L481.793 273.364H478.338L475.429 266.453H475.18L472.047 273.364H468.593L473.242 264.464L468.295 255.042H471.7L474.931 262.5H475.18L478.685 255.042H482.091L477.144 264.464Z" fill="white"/>
<path d="M489.249 255.044V271.102H497.676V273.364H486.216V255.044H489.249Z" fill="white"/>
<path d="M511.075 268.342C511.075 269.004 510.938 269.647 510.664 270.269C510.389 270.891 510.005 271.436 509.509 271.909C509.013 272.382 508.398 272.758 507.669 273.04C506.94 273.322 506.111 273.462 505.184 273.462C504.785 273.462 504.376 273.44 503.953 273.4C503.529 273.36 503.104 273.287 502.673 273.189C502.242 273.089 501.831 272.953 501.442 272.778C501.053 272.604 500.716 272.393 500.435 272.144L500.956 270.005C501.187 270.138 501.482 270.267 501.838 270.391C502.195 270.515 502.562 270.631 502.944 270.738C503.324 270.847 503.705 270.933 504.087 271C504.467 271.065 504.824 271.1 505.156 271.1C506.167 271.1 506.942 270.864 507.48 270.391C508.018 269.918 508.287 269.218 508.287 268.291C508.287 267.727 508.096 267.247 507.716 266.849C507.335 266.451 506.858 266.091 506.287 265.767C505.716 265.444 505.098 265.122 504.435 264.798C503.771 264.475 503.149 264.093 502.571 263.655C501.991 263.216 501.511 262.698 501.129 262.102C500.747 261.505 500.558 260.76 500.558 259.865C500.558 259.055 500.707 258.333 501.005 257.704C501.304 257.075 501.705 256.538 502.211 256.1C502.716 255.662 503.305 255.325 503.976 255.093C504.647 254.86 505.356 254.745 506.102 254.745C506.864 254.745 507.635 254.816 508.413 254.956C509.191 255.096 509.82 255.325 510.302 255.64C510.202 255.855 510.085 256.091 509.955 256.349C509.822 256.607 509.696 256.845 509.582 257.069C509.465 257.293 509.365 257.48 509.284 257.629C509.2 257.778 509.151 257.862 509.135 257.878C509.035 257.829 508.924 257.764 508.798 257.68C508.673 257.596 508.495 257.515 508.264 257.431C508.031 257.347 507.725 257.291 507.344 257.256C506.962 257.222 506.473 257.231 505.876 257.282C505.544 257.316 505.231 257.409 504.931 257.567C504.631 257.725 504.367 257.918 504.135 258.151C503.902 258.384 503.72 258.644 503.587 258.935C503.455 259.224 503.389 259.504 503.389 259.767C503.389 260.429 503.578 260.964 503.96 261.371C504.34 261.778 504.813 262.133 505.376 262.44C505.94 262.747 506.553 263.045 507.216 263.335C507.878 263.624 508.496 263.978 509.069 264.391C509.642 264.804 510.116 265.324 510.498 265.944C510.884 266.565 511.075 267.364 511.075 268.342Z" fill="white"/>
<path d="M482.818 206.091V198.818H461V206.091V209.727V213.364V217V220.636V224.273V227.909V231.545V238.818H479.182H482.818H521V231.545V227.909V224.273V220.636V217V213.364V206.091H482.818ZM464.636 202.455H479.182V206.091H464.636V202.455ZM464.636 209.727H479.182V213.364H464.636V209.727ZM464.636 217H479.182V220.636H464.636V217ZM464.636 224.273H479.182V227.909H464.636V224.273ZM479.182 235.182H464.636V231.545H479.182V235.182ZM517.364 235.182H482.818V231.545H517.364V235.182ZM517.364 227.909H482.818V224.273H517.364V227.909ZM517.364 220.636H482.818V217H517.364V220.636ZM482.818 213.364V209.727H517.364V213.364H482.818Z" fill="#33BB40"/>
<path d="M173.336 0H120.569C119.1 0 117.909 1.19091 117.909 3.50182V100C117.909 100.627 119.1 101.818 120.569 101.818H193.431C194.9 101.818 196.091 100.627 196.091 100V23.5964C196.091 22.3309 195.922 21.9236 195.624 21.6236L174.467 0.467273C174.167 0.169091 173.76 0 173.336 0Z" fill="white"/>
<path d="M174.273 0.274544V21.8182H195.816L174.273 0.274544Z" fill="#D7D7D7"/>
<path d="M193.431 101.818H120.569C119.1 101.818 117.909 100.627 117.909 99.1582V70.9091H196.091V99.1582C196.091 100.627 194.9 101.818 193.431 101.818Z" fill="#F6712E"/>
<path d="M138.056 96.3636H135.073V78.0436H140.342C141.12 78.0436 141.891 78.1673 142.653 78.4164C143.415 78.6655 144.098 79.0382 144.704 79.5345C145.309 80.0309 145.798 80.6327 146.171 81.3364C146.544 82.04 146.731 82.8309 146.731 83.7109C146.731 84.64 146.573 85.48 146.258 86.2345C145.944 86.9891 145.504 87.6236 144.94 88.1364C144.376 88.6491 143.696 89.0473 142.902 89.3291C142.107 89.6109 141.227 89.7509 140.267 89.7509H138.055V96.3636H138.056ZM138.056 80.3055V87.5636H140.791C141.155 87.5636 141.515 87.5018 141.873 87.3764C142.229 87.2527 142.556 87.0491 142.855 86.7673C143.153 86.4854 143.393 86.0927 143.575 85.5873C143.756 85.0818 143.847 84.4564 143.847 83.7109C143.847 83.4127 143.805 83.0673 143.724 82.68C143.64 82.2909 143.471 81.9182 143.215 81.5618C142.956 81.2055 142.596 80.9073 142.133 80.6673C141.669 80.4273 141.055 80.3073 140.293 80.3073H138.056V80.3055Z" fill="white"/>
<path d="M153.096 96.3636H150.113V78.0436H155.382C156.16 78.0436 156.931 78.1673 157.693 78.4164C158.455 78.6655 159.138 79.0382 159.744 79.5345C160.349 80.0309 160.838 80.6327 161.211 81.3364C161.584 82.04 161.771 82.8309 161.771 83.7109C161.771 84.64 161.613 85.48 161.298 86.2345C160.984 86.9891 160.544 87.6236 159.98 88.1364C159.416 88.6491 158.736 89.0473 157.942 89.3291C157.147 89.6109 156.267 89.7509 155.307 89.7509H153.095V96.3636H153.096ZM153.096 80.3055V87.5636H155.831C156.195 87.5636 156.555 87.5018 156.913 87.3764C157.269 87.2527 157.596 87.0491 157.895 86.7673C158.193 86.4854 158.433 86.0927 158.615 85.5873C158.796 85.0818 158.887 84.4564 158.887 83.7109C158.887 83.4127 158.845 83.0673 158.764 82.68C158.68 82.2909 158.511 81.9182 158.255 81.5618C157.996 81.2055 157.636 80.9073 157.173 80.6673C156.709 80.4273 156.095 80.3073 155.333 80.3073H153.096V80.3055Z" fill="white"/>
<path d="M178.102 78.0436V80.0818H172.633V96.3636H169.625V80.0818H164.156V78.0436H178.102Z" fill="white"/>
<path d="M177.909 54.5455H134.273V25.4545H177.909V54.5455ZM137.909 50.9091H174.273V29.0909H137.909V50.9091Z" fill="#F6712E"/>
<path d="M143.362 63.6364C143.044 63.6364 142.72 63.5527 142.427 63.3764C141.565 62.86 141.287 61.7436 141.804 60.8818L147.258 51.7909C147.775 50.9291 148.891 50.6509 149.753 51.1673C150.615 51.6836 150.893 52.8 150.376 53.6618L144.922 62.7527C144.582 63.3218 143.98 63.6364 143.362 63.6364Z" fill="#F6712E"/>
<path d="M168.82 63.6364C168.202 63.6364 167.6 63.3218 167.26 62.7545L161.805 53.6636C161.289 52.8018 161.567 51.6855 162.429 51.1691C163.291 50.6545 164.407 50.9309 164.924 51.7927L170.378 60.8836C170.895 61.7455 170.616 62.8618 169.755 63.3782C169.462 63.5527 169.138 63.6364 168.82 63.6364Z" fill="#F6712E"/>
<path d="M156.091 29.0909C155.087 29.0909 154.273 28.2782 154.273 27.2727V21.8182C154.273 20.8127 155.087 20 156.091 20C157.095 20 157.909 20.8127 157.909 21.8182V27.2727C157.909 28.2782 157.095 29.0909 156.091 29.0909Z" fill="#F6712E"/>
<path d="M472.336 26H419.569C418.1 26 416.909 27.1909 416.909 29.5018V126C416.909 126.627 418.1 127.818 419.569 127.818H492.431C493.9 127.818 495.091 126.627 495.091 126V49.5964C495.091 48.3309 494.922 47.9236 494.624 47.6236L473.467 26.4673C473.167 26.1691 472.76 26 472.336 26Z" fill="white"/>
<path d="M473.273 26.2745V47.8182H494.816L473.273 26.2745Z" fill="#D7D7D7"/>
<path d="M440.571 86.5891C439.938 86.5891 439.331 86.3836 438.813 85.9964C436.92 84.5764 436.665 82.9964 436.785 81.92C437.116 78.96 440.776 75.8618 447.667 72.7055C450.402 66.7127 453.004 59.3291 454.555 53.16C452.74 49.2109 450.976 44.0873 452.262 41.0818C452.713 40.0291 453.275 39.2218 454.324 38.8727C454.738 38.7345 455.785 38.56 456.171 38.56C457.087 38.56 457.893 39.74 458.464 40.4673C459 41.1509 460.216 42.6 457.785 52.8345C460.236 57.8964 463.709 63.0527 467.036 66.5836C469.42 66.1527 471.471 65.9327 473.142 65.9327C475.989 65.9327 477.715 66.5964 478.418 67.9636C479 69.0945 478.762 70.4164 477.709 71.8909C476.696 73.3073 475.3 74.0564 473.673 74.0564C471.462 74.0564 468.887 72.66 466.016 69.9018C460.858 70.98 454.835 72.9036 449.965 75.0327C448.445 78.2582 446.989 80.8564 445.633 82.7618C443.769 85.3709 442.162 86.5891 440.571 86.5891ZM445.411 77.2691C441.525 79.4527 439.942 81.2473 439.827 82.2582C439.809 82.4255 439.76 82.8655 440.611 83.5164C440.882 83.4309 442.464 82.7091 445.411 77.2691ZM470.205 69.1927C471.687 70.3327 472.049 70.9091 473.018 70.9091C473.444 70.9091 474.656 70.8909 475.218 70.1073C475.489 69.7273 475.595 69.4836 475.636 69.3527C475.413 69.2345 475.116 68.9945 473.5 68.9945C472.582 68.9964 471.427 69.0364 470.205 69.1927ZM456.624 57.2255C455.324 61.7236 453.607 66.58 451.762 70.9782C455.562 69.5036 459.693 68.2164 463.573 67.3055C461.118 64.4545 458.665 60.8945 456.624 57.2255ZM455.52 41.84C455.342 41.9 453.102 45.0345 455.695 47.6873C457.42 43.8418 455.598 41.8145 455.52 41.84Z" fill="#CC4B4C"/>
<path d="M492.431 127.818H419.569C418.1 127.818 416.909 126.627 416.909 125.158V96.9091H495.091V125.158C495.091 126.627 493.9 127.818 492.431 127.818Z" fill="#CC4B4C"/>
<path d="M436.7 122.364H433.716V104.044H438.985C439.764 104.044 440.535 104.167 441.296 104.416C442.058 104.665 442.742 105.038 443.347 105.535C443.953 106.031 444.442 106.633 444.815 107.336C445.187 108.04 445.375 108.831 445.375 109.711C445.375 110.64 445.216 111.48 444.902 112.235C444.587 112.989 444.147 113.624 443.584 114.136C443.02 114.649 442.34 115.047 441.545 115.329C440.751 115.611 439.871 115.751 438.911 115.751H436.698V122.364H436.7ZM436.7 106.305V113.564H439.435C439.798 113.564 440.158 113.502 440.516 113.376C440.873 113.253 441.2 113.049 441.498 112.767C441.796 112.485 442.036 112.093 442.218 111.587C442.4 111.082 442.491 110.456 442.491 109.711C442.491 109.413 442.449 109.067 442.367 108.68C442.284 108.291 442.115 107.918 441.858 107.562C441.6 107.205 441.24 106.907 440.776 106.667C440.313 106.427 439.698 106.307 438.936 106.307H436.7V106.305Z" fill="white"/>
<path d="M463.671 112.695C463.671 114.202 463.509 115.491 463.185 116.56C462.862 117.629 462.453 118.524 461.955 119.245C461.456 119.967 460.898 120.535 460.276 120.949C459.655 121.364 459.055 121.673 458.475 121.882C457.895 122.089 457.364 122.222 456.884 122.28C456.404 122.335 456.047 122.364 455.815 122.364H448.88V104.044H454.398C455.94 104.044 457.295 104.289 458.462 104.776C459.629 105.264 460.6 105.916 461.371 106.727C462.142 107.538 462.716 108.464 463.098 109.498C463.48 110.535 463.671 111.6 463.671 112.695ZM454.822 120.176C456.844 120.176 458.302 119.531 459.196 118.238C460.091 116.945 460.538 115.073 460.538 112.62C460.538 111.858 460.447 111.104 460.265 110.358C460.082 109.613 459.731 108.938 459.209 108.333C458.687 107.727 457.978 107.238 457.084 106.865C456.189 106.493 455.029 106.305 453.604 106.305H451.864V120.176H454.822Z" fill="white"/>
<path d="M471.029 106.305V112.073H478.685V114.111H471.029V122.364H467.996V104.044H479.455V106.305H471.029Z" fill="white"/>
</svg>
