<svg width="100" height="100" viewBox="0 0 100 100" fill="none" xmlns="http://www.w3.org/2000/svg">
<path fill-rule="evenodd" clip-rule="evenodd" d="M50 100C77.6142 100 100 77.6142 100 50C100 22.3858 77.6142 0 50 0C22.3858 0 0 22.3858 0 50C0 77.6142 22.3858 100 50 100Z" fill="#475E6C"/>
<path d="M66.9149 38.0357C66.3376 34.6047 64.6387 31.4734 62.0404 29.0972C59.1535 26.4546 55.4005 25 51.492 25C48.4718 25 45.5293 25.8661 43.0088 27.4983C40.9102 28.853 39.1669 30.6851 37.9344 32.8392C37.4014 32.7392 36.8463 32.6837 36.2911 32.6837C31.572 32.6837 27.7302 36.5256 27.7302 41.2446C27.7302 41.8553 27.7968 42.4438 27.9078 43.0212C24.8543 45.242 23 48.8173 23 52.6259C23 55.7016 24.1437 58.6885 26.2312 61.0536C28.3742 63.4742 31.2056 64.9065 34.2258 65.0731C34.2591 65.0731 34.2813 65.0731 34.3146 65.0731H43.8638C44.6965 65.0731 45.3628 64.4069 45.3628 63.5741C45.3628 62.7413 44.6965 62.0751 43.8638 62.0751H34.359C29.8176 61.7975 25.998 57.4782 25.998 52.6148C25.998 49.4725 27.6857 46.5411 30.4061 44.9533C31.039 44.5868 31.3055 43.8207 31.0613 43.1323C30.8392 42.5327 30.7281 41.8998 30.7281 41.2224C30.7281 38.1578 33.2265 35.6595 36.2911 35.6595C36.9462 35.6595 37.5902 35.7705 38.1898 35.9926C38.9226 36.2591 39.7332 35.926 40.0663 35.2265C42.1427 30.8183 46.6286 27.9758 51.5031 27.9758C58.0542 27.9758 63.4617 32.8836 64.0835 39.3903C64.1501 40.0677 64.6609 40.6117 65.3271 40.7228C70.2683 41.5667 73.9991 46.1303 73.9991 51.3379C73.9991 56.8564 69.6576 61.6532 64.3056 62.064H56.1222C55.2894 62.064 54.6232 62.7302 54.6232 63.563C54.6232 64.3958 55.2894 65.062 56.1222 65.062H64.3611C64.3944 65.062 64.4277 65.062 64.4721 65.062C67.8588 64.8177 71.0233 63.2632 73.3773 60.6649C75.7201 58.0889 76.9971 54.78 76.9971 51.3379C76.986 45.1087 72.7333 39.568 66.9149 38.0357Z" fill="white"/>
<path d="M58.9981 54.047C59.5866 53.4585 59.5866 52.5147 58.9981 51.9262L51.059 43.9871C50.7814 43.7095 50.3928 43.543 50.0042 43.543C49.6155 43.543 49.2269 43.6984 48.9493 43.9871L41.0102 51.9262C40.4217 52.5147 40.4217 53.4585 41.0102 54.047C41.2989 54.3357 41.6875 54.4912 42.0651 54.4912C42.4426 54.4912 42.8312 54.3468 43.1199 54.047L48.5052 48.6618V73.4118C48.5052 74.2446 49.1714 74.9108 50.0042 74.9108C50.837 74.9108 51.5032 74.2446 51.5032 73.4118V48.6618L56.8884 54.047C57.4658 54.6355 58.4096 54.6355 58.9981 54.047Z" fill="white"/>
</svg>
