<svg xmlns="http://www.w3.org/2000/svg" viewBox="0 0 100 154"><title>file-upload</title><g id="Layer_2" data-name="Layer 2"><g id="Layer_1-2" data-name="Layer 1"><path d="M100,67.9A5.25,5.25,0,0,0,99.9,67v0a6,6,0,0,0-.25-.82,2.4,2.4,0,0,0-.11-.23,4.56,4.56,0,0,0-.3-.58l-.14-.22a6,6,0,0,0-.56-.69l-27-27a6,6,0,0,0-.69-.56l-.22-.14a4.56,4.56,0,0,0-.58-.3l-.23-.11A6.27,6.27,0,0,0,69,36.1h0A5.15,5.15,0,0,0,68.1,36H55V17.07l9.46,9.47a5,5,0,0,0,7.08-7.08l-18-18,0,0a5.89,5.89,0,0,0-.73-.59c-.12-.08-.25-.14-.38-.21s-.31-.18-.48-.25-.33-.1-.49-.15S51.13.13,51,.1a5.88,5.88,0,0,0-.93-.1H50A5.88,5.88,0,0,0,49,.1c-.15,0-.29.09-.44.13s-.33.09-.49.15-.32.17-.48.25-.26.13-.38.21a5.89,5.89,0,0,0-.73.59l0,0-18,18a5,5,0,0,0,7.08,7.08L45,17.07V36H23a5,5,0,0,0-5,5V54H5a5,5,0,0,0-5,5v90a5,5,0,0,0,5,5H77a5,5,0,0,0,5-5V136H95a5,5,0,0,0,5-5V68S100,67.93,100,67.9ZM82.93,63H73V53.07ZM72,144H10V64h8v67a5,5,0,0,0,5,5H72ZM28,126V46H45V86a5,5,0,0,0,10,0V46h8V68a5,5,0,0,0,5,5H90v53Z"/></g></g></svg>