<svg width="54" height="54" viewBox="0 0 54 54" fill="none" xmlns="http://www.w3.org/2000/svg">
<path d="M47.1795 4.14031C47.1795 3.63668 47.0668 3.24497 46.6159 3.02114C46.1649 2.7973 45.7703 2.96518 45.4321 3.24497C43.9666 4.36414 42.3883 5.25948 40.6409 5.98694C38.3298 6.88227 35.9624 7.27398 33.5386 6.37865C32.1294 5.81906 30.7202 5.14756 29.3674 4.53202C27.62 3.7486 25.8163 3.13305 23.8998 2.96518C19.5595 2.62943 15.4447 3.4688 11.6117 5.42735C9.97703 6.26673 8.4551 7.27398 6.87682 8.22528C6.76408 7.88953 6.59498 7.44186 6.42588 6.99419C6.31314 6.65844 6.08767 6.43461 5.80584 6.32269C5.41126 5.93098 4.79122 5.81906 4.22755 6.0429C3.4384 6.32269 3.04383 7.21803 3.32567 8.00145L19.6722 51.5372C19.9541 52.3206 20.8559 52.7123 21.6451 52.4325C22.4342 52.1527 22.8288 51.2574 22.547 50.474L16.7975 35.0854L16.8539 35.0294C18.2067 33.8543 19.6159 32.847 21.1941 32.0077C22.7724 31.2242 24.4071 30.6647 26.2108 30.6087C28.4092 30.6087 30.5511 30.9445 32.5804 31.616C37.3152 33.1828 41.881 32.6792 46.334 30.6087C46.8977 30.3289 47.1232 29.9932 47.1232 29.3217C47.1795 20.9838 47.1795 12.5341 47.1795 4.14031ZM13.4718 26.2439L10.3152 17.7942C10.2025 17.4025 10.2589 17.2346 10.5971 17.0108C12.2881 15.7237 14.1482 14.6605 16.0647 13.8211C16.2338 13.7652 16.4029 13.6533 16.6284 13.5973C15.7265 11.247 14.8246 8.95274 13.8664 6.54652C14.5428 6.32269 15.1628 6.09886 15.7829 5.87502C18.1503 5.14756 20.6305 4.86777 23.1106 4.92373C23.4488 4.92373 23.6179 5.03564 23.6743 5.37139C24.238 7.60974 24.858 9.84808 25.4781 12.0864C25.4781 12.1424 25.4781 12.1983 25.5344 12.3103C22.4906 12.0864 19.5595 12.5341 16.6284 13.5413C17.7557 16.3952 18.8267 19.1932 19.9541 22.047C17.5303 23.0543 15.501 24.5652 13.4718 26.2439ZM22.7161 29.2657C21.8142 26.8595 20.9123 24.5092 19.9541 22.103C22.6033 20.9838 25.2526 20.9838 28.0146 21.4315C28.4655 23.0543 28.8601 24.6771 29.3111 26.2999C29.5365 27.1393 29.762 27.9786 29.9875 28.874C27.5637 28.6501 25.1399 28.4263 22.7161 29.2657ZM36.2443 30.4408C36.1315 30.4408 35.9624 30.2729 35.9624 30.217C35.3987 27.8667 34.8914 25.4605 34.3278 23.1103C34.3278 23.1103 34.3278 23.1103 34.3841 23.0543C34.9478 23.1103 35.5678 23.1662 36.1315 23.2781C37.4843 23.446 38.7808 23.3341 40.1336 23.1103C40.19 23.1103 40.3027 23.1103 40.3591 23.1103C40.5282 25.3486 40.6973 27.531 40.8664 29.7693C40.8664 29.9932 40.9227 30.217 40.9227 30.4408C39.3445 30.6647 37.8225 30.7766 36.2443 30.4408ZM44.8121 21.5434C43.3465 22.047 41.881 22.5507 40.4154 22.9983C40.2463 21.0957 40.0772 19.1372 39.9081 17.2346C39.8518 16.675 39.7954 16.1714 39.739 15.5559C37.2025 16.2274 34.8351 15.9476 32.4113 14.8284C33.0313 17.5704 33.6514 20.2564 34.2714 22.9424C32.1294 22.4388 30.1002 21.9351 28.0146 21.4875C27.7328 20.4242 27.3946 19.3051 27.1127 18.2419C26.6054 16.4512 26.1545 14.6605 25.7035 12.8698C25.6472 12.7579 25.6472 12.646 25.5908 12.4222C25.9854 12.4781 26.38 12.4781 26.7182 12.646C28.4092 13.2615 30.1002 13.9331 31.8476 14.6046C32.0167 14.6605 32.1858 14.7724 32.4676 14.8843C31.904 12.4222 31.3403 10.0719 30.7766 7.60974C33.5386 8.89678 36.3006 9.28849 39.1754 8.56103C39.3445 10.9672 39.5699 13.2615 39.739 15.6678C41.7119 15.1082 43.4593 14.2128 45.1503 13.0937C45.1503 13.3175 45.2067 13.4294 45.2067 13.5413C45.2067 16.0035 45.2067 18.5217 45.2067 20.9838C45.2067 21.2636 45.0939 21.4315 44.8121 21.5434Z" fill="white"/>
</svg>
