<svg xmlns="http://www.w3.org/2000/svg" viewBox="0 0 118 127"><title>folder-upload</title><g id="Layer_2" data-name="Layer 2"><g id="Layer_1-2" data-name="Layer 1"><path d="M113,45H64V17.07l9.46,9.47a5,5,0,0,0,7.08-7.08l-18-18,0,0a5.89,5.89,0,0,0-.73-.59c-.12-.08-.25-.14-.38-.21s-.31-.18-.48-.25-.33-.1-.49-.15S60.13.13,60,.1a5.88,5.88,0,0,0-.93-.1H59A5.88,5.88,0,0,0,58,.1c-.15,0-.29.09-.44.13s-.33.09-.49.15-.32.17-.48.25-.26.13-.38.21a5.89,5.89,0,0,0-.73.59l0,0-18,18a5,5,0,0,0,7.08,7.08L54,17.07V45H43.07l-7.53-7.54A5,5,0,0,0,32,36H5a5,5,0,0,0-5,5v81a5,5,0,0,0,5,5H113a5,5,0,0,0,5-5V50A5,5,0,0,0,113,45Zm-5,72H10V46H29.93l7.53,7.54A5,5,0,0,0,41,55H54V86a5,5,0,0,0,10,0V55h44Z"/></g></g></svg>