<svg width="54" height="49" viewBox="0 0 54 49" fill="none" xmlns="http://www.w3.org/2000/svg">
<path d="M53.602 37.1438C53.5634 36.3618 53.0622 35.8777 52.2525 35.8405C52.0597 35.8405 51.8283 35.8405 51.6355 35.8405C51.4813 35.8405 51.2885 35.8405 51.1343 35.8777C51.0957 35.8777 51.0572 35.8777 51.0572 35.8777C51.0572 35.8777 51.0572 35.8405 51.0186 35.8032C50.8644 35.2819 50.5945 34.7606 50.3246 34.2392C50.286 34.202 50.286 34.1648 50.286 34.1275L50.3246 34.0903C50.6331 33.8669 50.8644 33.6062 51.0957 33.3455C51.25 33.1966 51.2885 33.1594 51.4428 32.9732C51.4813 32.9359 51.5584 32.8242 51.597 32.787L51.8283 32.4891L51.7127 32.1912C51.6741 32.1539 51.5199 31.9305 51.4813 31.8933C51.3656 31.7071 51.2885 31.6698 51.1343 31.5209C50.6716 31.0368 50.1318 30.5155 49.6306 30.0686C49.3607 29.808 49.0522 29.6963 48.7438 29.6963C48.3967 29.6963 48.0883 29.8452 47.7798 30.1059C47.4714 30.3665 47.24 30.6272 46.9701 30.8879L46.9316 30.9251C46.9316 30.9251 46.893 30.9251 46.8545 30.8879C46.5846 30.7761 46.3532 30.6644 46.0833 30.59C45.7749 30.4782 45.505 30.3665 45.2351 30.2548L45.1965 30.2176C45.1579 30.0314 45.1579 29.808 45.1965 29.5473C45.1965 29.3984 45.1965 29.2494 45.1965 29.1004C45.1579 28.244 44.6567 27.7599 43.7699 27.7227C43.5 27.7227 43.1915 27.7227 42.9216 27.7227C42.6132 27.7227 42.3047 27.7227 41.9962 27.7227C40.9552 27.7227 40.454 28.2067 40.454 29.2494C40.454 29.3983 40.454 29.5473 40.4925 29.6963C40.4925 29.8452 40.5311 30.1431 40.4925 30.2176C40.4154 30.2921 40.1841 30.3665 40.0298 30.4038C39.8756 30.441 39.7214 30.4782 39.6057 30.5527C39.4515 30.59 39.2972 30.6644 39.1816 30.7389C39.0273 30.8134 38.796 30.9251 38.7189 30.9623C38.6418 30.9251 38.4104 30.7017 38.2948 30.5527C38.1791 30.441 38.0634 30.2921 37.9477 30.1803C37.6393 29.8824 37.2923 29.7335 36.9452 29.7335C36.6368 29.7335 36.2898 29.8824 36.0199 30.1431C35.5186 30.59 35.0174 31.074 34.5547 31.5581C33.9763 32.1912 33.9763 32.8615 34.6318 33.4573C34.7089 33.5317 34.786 33.6062 34.9017 33.6807C35.0559 33.8296 35.2487 33.9786 35.3258 34.1275C35.3258 34.1648 35.3644 34.202 35.3644 34.202C35.2487 34.4999 35.1331 34.7606 34.9788 35.0585C34.8632 35.3191 34.7475 35.617 34.6318 35.8777C34.439 35.8777 34.2848 35.8777 34.092 35.8777C33.8607 35.8777 33.6679 35.8777 33.4365 35.8777C32.6654 35.9149 32.1642 36.399 32.1256 37.1065C32.087 37.8141 32.087 38.5216 32.1256 39.2291C32.1642 39.9738 32.6654 40.4207 33.4751 40.4579C33.6679 40.4579 33.8992 40.4579 34.092 40.4579C34.2462 40.4579 34.4005 40.4579 34.5933 40.4579C34.5933 40.4579 34.5933 40.4579 34.5933 40.4952C34.7089 40.7931 34.8246 41.091 34.9788 41.3889C35.0945 41.6868 35.2487 41.9474 35.3258 42.2453C35.2102 42.3943 35.0559 42.5432 34.8632 42.6922C34.786 42.7667 34.6704 42.8784 34.5933 42.9529C33.9763 43.5487 33.9763 44.2189 34.5161 44.8147C34.9788 45.2988 35.4801 45.7829 35.9813 46.2298C36.2898 46.4904 36.5982 46.6394 36.9452 46.6394C37.2923 46.6394 37.6393 46.4904 37.9863 46.1553L38.1791 45.9691C38.3333 45.8201 38.4875 45.634 38.6803 45.485C38.9888 45.6712 39.3358 45.8574 39.7214 45.9319C40.4925 46.118 40.6853 46.3787 40.5696 47.0862C40.4925 47.5703 40.6467 47.9055 40.801 48.0916C40.9938 48.2778 41.3022 48.5385 41.9577 48.5385C42.2276 48.5385 42.4589 48.5385 42.7288 48.5385H43.6542C44.8109 48.5385 45.3122 48.0544 45.3122 46.9373C45.3122 46.6394 45.3122 46.3042 45.3507 46.2298C45.4278 46.1553 45.6977 46.0436 45.9676 45.9691C46.0833 45.9319 46.199 45.8946 46.2761 45.8574C46.4303 45.7829 46.5846 45.7084 46.7388 45.634C46.893 45.5595 47.1244 45.4478 47.2015 45.4105C47.2786 45.4478 47.4714 45.6712 47.587 45.7829C47.7027 45.8946 47.8184 46.0436 47.9341 46.1553C48.2425 46.4532 48.551 46.5649 48.898 46.5649C49.2064 46.5649 49.5149 46.416 49.8234 46.1925C50.3632 45.7084 50.8644 45.2243 51.3271 44.7403C51.9054 44.1445 51.8669 43.4742 51.25 42.8784C51.1729 42.8039 51.0572 42.6922 50.9801 42.6177C50.8258 42.4688 50.6331 42.3198 50.5559 42.2081V42.1709C50.7873 41.5378 51.0186 40.9793 51.2885 40.4579L51.3271 40.4207C51.4428 40.4207 51.5584 40.3835 51.7127 40.3835C51.7898 40.3835 51.8669 40.3835 51.9826 40.3835C52.0597 40.3835 52.1754 40.3835 52.2525 40.3835C52.3296 40.3835 52.3681 40.3835 52.4453 40.3835C53.255 40.3462 53.7948 39.8994 53.7948 39.1174C53.6405 38.5216 53.6405 37.8513 53.602 37.1438ZM46.0062 42.2453C45.1579 42.9156 44.1169 43.288 42.9987 43.288C42.9216 43.288 42.8831 43.288 42.8059 43.288C42.7288 43.288 42.6903 43.288 42.6132 43.288C39.9142 43.288 37.5622 40.9793 37.5622 38.2981C37.5622 35.5798 39.7985 33.2338 42.7674 33.2338C42.8059 33.2338 42.8059 33.2338 42.8445 33.2338C45.7749 33.2711 47.9726 35.617 47.9726 38.2609C48.0497 39.8621 47.24 41.3144 46.0062 42.2453Z" fill="#33BB40"/>
<path d="M27.6915 38.2602C27.6915 32.9352 30.6219 28.2805 35.0174 25.7483C32.2798 23.4396 28.9254 21.8384 25.2239 21.1681C29.3881 19.6786 32.357 15.8059 32.357 11.2629C32.357 5.45379 27.4602 0.724609 21.4067 0.724609C15.3532 0.724609 10.495 5.45379 10.495 11.2629C10.495 15.8059 13.4639 19.6786 17.6281 21.1681C7.95024 22.881 0.585815 31.0733 0.585815 40.9413H27.9614C27.8072 40.0848 27.6915 39.1911 27.6915 38.2602Z" fill="#33BB40"/>
</svg>
