<svg width="53" height="48" viewBox="0 0 53 48" fill="none" xmlns="http://www.w3.org/2000/svg">
<path d="M52.5728 36.4124C52.5349 35.6447 52.0428 35.1694 51.2478 35.1328C51.0585 35.1328 50.8314 35.1328 50.6421 35.1328C50.4907 35.1328 50.3014 35.1328 50.15 35.1694C50.1121 35.1694 50.0743 35.1694 50.0743 35.1694C50.0743 35.1694 50.0743 35.1328 50.0364 35.0962C49.885 34.5844 49.62 34.0725 49.355 33.5607C49.3171 33.5241 49.3171 33.4876 49.3171 33.451L49.355 33.4145C49.6579 33.1951 49.885 32.9392 50.1121 32.6832C50.2636 32.537 50.3014 32.5004 50.4528 32.3176C50.4907 32.2811 50.5664 32.1714 50.6043 32.1348L50.8314 31.8424L50.7178 31.5499C50.68 31.5133 50.5285 31.2939 50.4907 31.2574C50.3771 31.0746 50.3014 31.038 50.15 30.8918C49.6957 30.4165 49.1657 29.9046 48.6736 29.4659C48.4086 29.21 48.1057 29.1003 47.8029 29.1003C47.4622 29.1003 47.1593 29.2466 46.8565 29.5025C46.5536 29.7584 46.3265 30.0143 46.0615 30.2702L46.0237 30.3068C46.0237 30.3068 45.9858 30.3068 45.9479 30.2702C45.683 30.1606 45.4558 30.0509 45.1908 29.9778C44.888 29.8681 44.623 29.7584 44.358 29.6487L44.3201 29.6122C44.2823 29.4294 44.2823 29.21 44.3201 28.9541C44.3201 28.8078 44.3201 28.6616 44.3201 28.5153C44.2823 27.6744 43.7901 27.1992 42.9195 27.1626C42.6545 27.1626 42.3516 27.1626 42.0866 27.1626C41.7838 27.1626 41.4809 27.1626 41.1781 27.1626C40.156 27.1626 39.6638 27.6379 39.6638 28.6616C39.6638 28.8078 39.6638 28.9541 39.7017 29.1003C39.7017 29.2466 39.7395 29.539 39.7017 29.6122C39.626 29.6853 39.3988 29.7584 39.2474 29.795C39.096 29.8315 38.9446 29.8681 38.831 29.9412C38.6796 29.9778 38.5281 30.0509 38.4146 30.124C38.2631 30.1971 38.036 30.3068 37.9603 30.3434C37.8846 30.3068 37.6574 30.0874 37.5439 29.9412C37.4303 29.8315 37.3167 29.6853 37.2032 29.5756C36.9003 29.2831 36.5596 29.1369 36.2189 29.1369C35.9161 29.1369 35.5754 29.2831 35.3104 29.539C34.8182 29.9778 34.3261 30.4531 33.8718 30.9283C33.304 31.5499 33.304 32.208 33.9475 32.7929C34.0233 32.8661 34.099 32.9392 34.2125 33.0123C34.364 33.1585 34.5532 33.3048 34.629 33.451C34.629 33.4876 34.6668 33.5241 34.6668 33.5241C34.5532 33.8166 34.4397 34.0725 34.2882 34.365C34.1747 34.621 34.0611 34.9134 33.9475 35.1694C33.7583 35.1694 33.6068 35.1694 33.4176 35.1694C33.1904 35.1694 33.0011 35.1694 32.774 35.1694C32.0169 35.2059 31.5247 35.6812 31.4869 36.3759C31.449 37.0705 31.449 37.7652 31.4869 38.4598C31.5247 39.191 32.0169 39.6298 32.8119 39.6663C33.0011 39.6663 33.2283 39.6663 33.4176 39.6663C33.569 39.6663 33.7204 39.6663 33.9097 39.6663C33.9097 39.6663 33.9097 39.6663 33.9097 39.7029C34.0233 39.9954 34.1368 40.2878 34.2882 40.5803C34.4018 40.8728 34.5532 41.1287 34.629 41.4212C34.5154 41.5675 34.364 41.7137 34.1747 41.86C34.099 41.9331 33.9854 42.0428 33.9097 42.1159C33.304 42.7008 33.304 43.3589 33.834 43.9439C34.2882 44.4192 34.7804 44.8945 35.2725 45.3332C35.5754 45.5891 35.8782 45.7354 36.2189 45.7354C36.5596 45.7354 36.9003 45.5891 37.241 45.2601L37.4303 45.0773C37.5817 44.931 37.7332 44.7482 37.9224 44.602C38.2253 44.7848 38.566 44.9676 38.9446 45.0407C39.7017 45.2235 39.891 45.4795 39.7774 46.1741C39.7017 46.6494 39.8531 46.9784 40.0045 47.1612C40.1938 47.344 40.4967 47.6 41.1402 47.6C41.4052 47.6 41.6323 47.6 41.8973 47.6H42.8059C43.9416 47.6 44.4337 47.1247 44.4337 46.0279C44.4337 45.7354 44.4337 45.4063 44.4716 45.3332C44.5473 45.2601 44.8123 45.1504 45.0773 45.0773C45.1908 45.0407 45.3044 45.0042 45.3801 44.9676C45.5315 44.8945 45.683 44.8214 45.8344 44.7482C45.9858 44.6751 46.2129 44.5654 46.2887 44.5289C46.3644 44.5654 46.5536 44.7848 46.6672 44.8945C46.7808 45.0042 46.8944 45.1504 47.0079 45.2601C47.3108 45.5526 47.6136 45.6623 47.9543 45.6623C48.2572 45.6623 48.56 45.516 48.8629 45.2967C49.3929 44.8214 49.885 44.3461 50.3393 43.8708C50.9071 43.2858 50.8692 42.6277 50.2635 42.0428C50.1878 41.9696 50.0743 41.86 49.9986 41.7868C49.8471 41.6406 49.6578 41.4943 49.5821 41.3847V41.3481C49.8093 40.7266 50.0364 40.1782 50.3014 39.6663L50.3393 39.6298C50.4528 39.6298 50.5664 39.5932 50.7178 39.5932C50.7935 39.5932 50.8693 39.5932 50.9828 39.5932C51.0585 39.5932 51.1721 39.5932 51.2478 39.5932C51.3235 39.5932 51.3614 39.5932 51.4371 39.5932C52.2321 39.5566 52.7621 39.1179 52.7621 38.3501C52.6106 37.7652 52.6106 37.1071 52.5728 36.4124ZM45.1151 41.4212C44.2823 42.0793 43.2602 42.4449 42.1623 42.4449C42.0866 42.4449 42.0488 42.4449 41.973 42.4449C41.8973 42.4449 41.8595 42.4449 41.7838 42.4449C39.1338 42.4449 36.8246 40.1782 36.8246 37.5458C36.8246 34.8769 39.0203 32.5736 41.9352 32.5736C41.973 32.5736 41.973 32.5736 42.0109 32.5736C44.888 32.6101 47.0458 34.9134 47.0458 37.5092C47.1215 39.0814 46.3265 40.5072 45.1151 41.4212Z" fill="white"/>
<path d="M27.1334 37.5091C27.1334 32.2809 30.0105 27.7108 34.3261 25.2247C31.6383 22.958 28.3448 21.3859 24.7106 20.7278C28.7991 19.2654 31.714 15.463 31.714 11.0027C31.714 5.2992 26.9063 0.656006 20.9628 0.656006C15.0194 0.656006 10.2495 5.2992 10.2495 11.0027C10.2495 15.463 13.1645 19.2654 17.2529 20.7278C7.75104 22.4096 0.520508 30.4529 0.520508 40.1415H27.3984C27.247 39.3006 27.1334 38.4231 27.1334 37.5091Z" fill="white"/>
</svg>
