<svg width="28" height="20" viewBox="0 0 28 20" fill="none" xmlns="http://www.w3.org/2000/svg">
<g opacity="0.5">
<path d="M23.2211 8.77666H9.05755C8.3824 8.77666 7.83504 9.32401 7.83504 9.99914C7.83504 10.6743 8.3824 11.2216 9.05755 11.2216H23.2211L21.6405 12.8021C21.1631 13.2795 21.1631 14.0536 21.6405 14.531C22.1178 15.0084 22.8919 15.0084 23.3694 14.531L27.0367 10.8638C27.065 10.8355 27.0918 10.8059 27.1172 10.7749C27.1234 10.7674 27.1287 10.7592 27.1347 10.7515C27.1534 10.7277 27.1717 10.7039 27.1885 10.6788C27.1934 10.6715 27.1974 10.6638 27.2022 10.6564C27.219 10.6301 27.2354 10.6036 27.2503 10.576C27.2531 10.5705 27.2555 10.5647 27.2583 10.5593C27.2737 10.5294 27.2886 10.4991 27.3015 10.4678C27.3032 10.4639 27.3043 10.4599 27.3059 10.4559C27.3191 10.423 27.3314 10.3897 27.3419 10.3554C27.3433 10.3511 27.344 10.3466 27.3452 10.3422C27.3551 10.3085 27.3641 10.2745 27.3711 10.2397C27.3731 10.2294 27.374 10.2187 27.3759 10.2083C27.3809 10.1794 27.386 10.1506 27.3888 10.1211C27.393 10.0808 27.395 10.0401 27.395 9.99914C27.395 9.95823 27.393 9.91748 27.3888 9.87706C27.386 9.84723 27.3808 9.81813 27.3758 9.78904C27.374 9.77893 27.3731 9.76858 27.3711 9.75856C27.364 9.72343 27.3551 9.68912 27.3451 9.65514C27.3439 9.65114 27.3432 9.64691 27.342 9.64291C27.3314 9.60844 27.3191 9.57478 27.3057 9.54153C27.3042 9.53794 27.3032 9.53411 27.3016 9.53053C27.2886 9.49899 27.2737 9.4685 27.2581 9.43843C27.2554 9.43313 27.2531 9.42759 27.2504 9.42229C27.2354 9.3945 27.2188 9.36777 27.2018 9.34128C27.1972 9.33411 27.1933 9.32653 27.1886 9.31952C27.1717 9.29434 27.1532 9.27038 27.1346 9.24658C27.1287 9.23892 27.1234 9.23085 27.1173 9.22336C27.0918 9.19247 27.065 9.1628 27.0367 9.13452L23.3695 5.46732C23.1307 5.22852 22.8179 5.10921 22.505 5.10921C22.1921 5.10921 21.8792 5.22852 21.6406 5.46732C21.1632 5.94474 21.1632 6.71873 21.6406 7.19615L23.2211 8.77666Z" fill="white"/>
<path d="M10.5001 20C13.8371 20 16.9417 18.3446 18.8053 15.5719C19.1818 15.0116 19.0328 14.252 18.4725 13.8754C17.9121 13.4989 17.1526 13.6477 16.7759 14.2082C15.3675 16.3039 13.0214 17.5551 10.5001 17.5551C6.3342 17.555 2.94492 14.1659 2.94492 10C2.94492 5.8341 6.3342 2.44497 10.5001 2.44497C13.014 2.44497 15.3562 3.69052 16.7657 5.77672C17.1438 6.33622 17.9035 6.48324 18.4631 6.10533C19.0225 5.72734 19.1697 4.96744 18.7917 4.40803C16.9269 1.64783 13.8273 0 10.5001 0C4.98602 0 0.499899 4.48595 0.499899 10C0.499899 15.5141 4.98602 20 10.5001 20Z" fill="white"/>
</g>
</svg>
