<svg width="29" height="34" viewBox="0 0 29 34" fill="none" xmlns="http://www.w3.org/2000/svg">
<g clip-path="url(#clip0)">
<path d="M29 0.400543C28.9983 2.03572 28.3357 3.60345 27.1576 4.7597C25.9795 5.91594 24.3822 6.56624 22.7161 6.56789H6.2839C4.83442 6.5692 3.44466 7.13483 2.4196 8.14064C1.39454 9.14646 0.817901 10.5103 0.816223 11.9329C0.816223 12.0391 0.773226 12.141 0.69669 12.2161C0.620154 12.2912 0.516349 12.3334 0.408112 12.3334C0.299874 12.3334 0.196069 12.2912 0.119533 12.2161C0.0429973 12.141 0 12.0391 0 11.9329L0 6.16735C0.00167766 4.53217 0.664269 2.96444 1.84237 1.80819C3.02046 0.651949 4.61782 0.00164847 6.2839 1.93173e-06H28.5906C28.6443 -0.000161747 28.6975 0.0100778 28.7472 0.0301336C28.7969 0.0501894 28.842 0.0796671 28.88 0.116877C28.9181 0.154087 28.9482 0.198298 28.9688 0.246975C28.9894 0.295652 29 0.347839 29 0.400543Z" fill="white"/>
<path d="M23.91 10.833H6.2839C4.61804 10.8347 3.02087 11.4848 1.84281 12.6408C0.664752 13.7967 0.00201309 15.3641 0 16.9991L0 22.7634C0 22.8697 0.0429973 22.9715 0.119533 23.0466C0.196069 23.1218 0.299874 23.164 0.408112 23.164C0.516349 23.164 0.620154 23.1218 0.69669 23.0466C0.773226 22.9715 0.816223 22.8697 0.816223 22.7634C0.8179 21.3407 1.3945 19.9767 2.41952 18.9707C3.44455 17.9647 4.8343 17.3988 6.2839 17.3972H18.0342C19.7001 17.3955 21.2972 16.7454 22.4753 15.5894C23.6534 14.4334 24.3161 12.866 24.3181 11.2311C24.3175 11.1253 24.2742 11.024 24.1977 10.9494C24.1212 10.8749 24.0178 10.833 23.91 10.833Z" fill="white"/>
<path d="M19.2281 21.665H6.2839C4.61782 21.6667 3.02046 22.317 1.84237 23.4732C0.664269 24.6295 0.00167766 26.1972 0 27.8324L0 33.5992C0 33.7054 0.0429973 33.8073 0.119533 33.8824C0.196069 33.9575 0.299874 33.9997 0.408112 33.9997C0.516349 33.9997 0.620154 33.9575 0.69669 33.8824C0.773226 33.8073 0.816223 33.7054 0.816223 33.5992C0.818906 32.1771 1.39595 30.8141 2.42086 29.8089C3.44578 28.8037 4.83496 28.2383 6.2839 28.2367H13.3523C15.0184 28.235 16.6158 27.5847 17.7939 26.4285C18.972 25.2722 19.6346 23.7045 19.6362 22.0693C19.6367 22.0164 19.6266 21.9639 19.6063 21.9149C19.586 21.8659 19.556 21.8213 19.5181 21.7837C19.4801 21.7461 19.435 21.7162 19.3852 21.6959C19.3354 21.6755 19.2821 21.665 19.2281 21.665Z" fill="white"/>
</g>
<defs>
<clipPath id="clip0">
<rect width="29" height="34" fill="white"/>
</clipPath>
</defs>
</svg>
