<svg xmlns="http://www.w3.org/2000/svg" width="170" height="35" viewBox="0 0 170 35">
  <g fill="none">
    <path fill="#33BB40" d="M17.5765452,34.8626923 C8.01659242,34.8626923 0.266719493,27.1180795 0.266719493,17.5646154 C0.266719493,8.0111513 8.01659242,0.266538462 17.5765452,0.266538462 C27.1364979,0.266538462 34.8863708,8.0111513 34.8863708,17.5646154 C34.875977,27.1137738 27.1321893,34.8523055 17.5765452,34.8626923 L17.5765452,34.8626923 Z M17.5765452,3.09346154 C9.58803205,3.10089542 3.11683984,9.57613113 3.11981485,17.5592251 C3.12278986,25.542319 9.59880645,32.0127363 17.5873229,32.0142242 C25.5758393,32.0157122 32.054269,25.5477077 32.0602219,17.5646154 C32.0513013,9.57724008 25.5693504,3.1069181 17.5765452,3.10692308 L17.5765452,3.09346154 Z"/>
    <path fill="#70CE45" d="M26.2866878,9.78115385 C26.2867033,11.5602146 24.8474485,13.0045103 23.0671949,13.0119231 L14.6507132,13.0119231 C13.1106135,13.014865 11.8616012,14.2594222 11.8541997,15.7984615 C11.8527251,15.9133886 11.7590716,16.0057787 11.6440571,16.0057692 C11.5294864,16.0057692 11.4366086,15.9129544 11.4366086,15.7984615 L11.4366086,12.7884615 C11.4366086,11.004157 12.8840556,9.55769231 14.6695721,9.55769231 L26.0792393,9.55769231 C26.1371768,9.55751624 26.1925481,9.58156072 26.2319523,9.62400654 C26.2713565,9.66645237 26.2912027,9.72343145 26.2866878,9.78115385 Z"/>
    <path fill="#33BB40" d="M23.6787639,15.2223077 L14.6507132,15.2223077 C12.8704441,15.2222922 11.4251674,16.6605701 11.4177496,18.4396154 L11.4177496,21.4496154 C11.4177496,21.5641083 11.5106275,21.6569231 11.6251981,21.6569231 C11.7402126,21.6569325 11.8338662,21.5645424 11.8353407,21.4496154 C11.8353407,20.7070092 12.1305402,19.9948183 12.6559987,19.4697164 C13.1814573,18.9446145 13.8941319,18.6496154 14.6372425,18.6496154 L20.6694136,18.6496154 C22.4496827,18.6496308 23.8949594,17.211353 23.9023772,15.4323077 C23.9024968,15.3741995 23.8785174,15.3186391 23.8361442,15.2788455 C23.793771,15.239052 23.7367921,15.2185827 23.6787639,15.2223077 L23.6787639,15.2223077 Z"/>
    <path fill="#229F43" d="M21.2836767,20.8734615 L14.6507132,20.8734615 C12.8651967,20.8734615 11.4177496,22.3199262 11.4177496,24.1042308 L11.4177496,27.0980769 C11.417029,27.1535233 11.4385665,27.2069472 11.4775491,27.2464091 C11.5165316,27.2858711 11.5697094,27.3080816 11.6251981,27.3080769 C11.7412567,27.3080769 11.8353407,27.2140567 11.8353407,27.0980769 C11.8368276,25.5527311 13.0908464,24.3007685 14.6372425,24.3007692 L18.2716323,24.3007692 C20.0571488,24.3007692 21.5045959,22.8543046 21.5045959,21.07 C21.4973695,20.9550211 21.3987969,20.867327 21.2836767,20.8734615 L21.2836767,20.8734615 Z"/>
    <path fill="#FFF" d="M52.8832013 20.7307692L53.3870048 20.9003846C53.0227669 22.1027701 52.3260792 23.1778901 51.3771791 24.0019231 50.3784158 24.8661039 49.0901219 25.3218446 47.7697306 25.2780769 45.781458 25.2780769 44.2035922 24.6498718 43.0361331 23.3934615 41.8686741 22.1370513 41.2831484 20.2623077 41.2795563 17.7692308 41.2795563 15.2420513 41.9081881 13.3098718 43.1654517 11.9726923 44.4227153 10.6355128 46.0885895 9.96512821 48.1630745 9.96153846 51.6816165 9.96153846 53.4417855 12.0391026 53.4435816 16.1942308L45.5497623 16.1942308C45.5309033 16.4634615 45.5201268 16.9157692 45.5201268 17.5134615 45.4876588 18.5670359 45.6643836 19.6165998 46.0400951 20.6015385 46.3042071 21.319365 46.7724061 21.9444543 47.3871632 22.4 47.9101785 22.764937 48.5327906 22.9604286 49.1706815 22.96 50.7081352 22.9653846 51.9456418 22.2223077 52.8832013 20.7307692zM46.3202853 11.8084615C45.8820391 12.6412821 45.6063391 13.9282051 45.4931854 15.6692308L49.9034865 15.6692308C49.9718476 14.4317661 49.8241605 13.1918535 49.4670365 12.005 49.141046 11.0411538 48.6587956 10.5592308 47.9933439 10.5592308 47.3278922 10.5592308 46.7621236 10.9765385 46.3202853 11.8084615zM69.2393027 28.3930769C69.4925515 28.6658974 69.9281035 28.8023077 70.5459588 28.8023077L70.5459588 29.3919231C68.7498679 29.3165385 67.5698362 29.2788462 67.0058637 29.2788462 66.4418912 29.2788462 65.1217644 29.3066667 63.0454834 29.3623077L62.2857369 29.3919231 62.2857369 28.8076923C63.1478605 28.8076923 63.7836767 28.6461538 64.1958796 28.3284615 64.6080824 28.0107692 64.8155309 27.44 64.8155309 26.6161538L64.8155309 22.715C64.5543174 23.4806561 64.0632331 24.1472126 63.4091918 24.6238462 62.7551433 25.0661723 61.9786569 25.2921799 61.1892235 25.27 59.5764146 25.3120367 58.03733 24.5953479 57.0321712 23.3342308 55.9652932 22.0419231 55.4318542 20.1133333 55.4318542 17.5484615 55.4318542 15.0787179 55.9886424 13.1941026 57.1022187 11.8946154 58.215795 10.5951282 59.7119387 9.95076923 61.5906498 9.96153846 62.2704549 9.94755318 62.9483555 10.0383629 63.6004754 10.2307692 64.1529685 10.4100527 64.6577017 10.7119507 65.0768621 11.1138462 65.7555832 11.1287332 66.431291 11.0192334 67.070523 10.7907692 67.6517789 10.6113941 68.1881367 10.3103564 68.6438986 9.90769231L69.066878 10.1311538C68.9248687 10.6575929 68.8577543 11.2013942 68.8675119 11.7465385L68.8675119 26.8907692C68.8675119 27.6302564 68.9914422 28.1310256 69.2393027 28.3930769zM63.9103011 23.4230769C64.3876524 22.9681687 64.7075595 22.3731115 64.8236133 21.7242308L64.8236133 11.4019231C64.2552482 10.8313698 63.4732143 10.5256068 62.6683043 10.5592308 60.6818278 10.5592308 59.6885895 12.9078205 59.6885895 17.605 59.6885895 19.9096154 59.9229794 21.5617949 60.3917591 22.5615385 60.8605388 23.5612821 61.5250924 24.0620513 62.38542 24.0638462 62.9575138 24.0553849 63.5040699 23.825717 63.9103011 23.4230769L63.9103011 23.4230769zM85.5011094 21.8076923C85.5011094 22.6692308 85.6358162 23.2938462 85.9079239 23.6923077 86.1800317 24.0907692 86.6434231 24.2819231 87.2980983 24.2819231L87.2980983 24.8769231C86.718859 24.8230769 86.1369255 24.7934615 85.5576862 24.7934615 84.1803586 24.7684459 82.8046628 24.9003218 81.4572108 25.1865385L81.4572108 22.6611538C80.5950872 24.4003846 79.0872689 25.27 76.9337559 25.27 75.5274168 25.27 74.5063391 24.905641 73.870523 24.1769231 73.5459482 23.7700769 73.3200292 23.2936653 73.2104596 22.785 73.0531455 22.0427195 72.9826256 21.2846932 73.000317 20.5261538L73.000317 13.4238462C73.000317 12.5623077 72.8638141 11.9341026 72.5908082 11.5392308 72.3178024 11.144359 71.854411 10.9478205 71.2006339 10.9496154L71.2006339 10.3626923C71.7807713 10.4201282 72.3618067 10.4479487 72.9437401 10.4461538 74.3237596 10.4716437 75.702186 10.3397659 77.0522979 10.0530769L77.0522979 21.6784615C77.0522979 22.4646154 77.1681458 23.0515385 77.4025357 23.4473077 77.6369255 23.8430769 78.081458 24.0342308 78.7496038 24.0342308 79.5013914 24.0337715 80.2110255 23.687141 80.6732171 23.0946154 81.2182646 22.4483357 81.5059952 21.6240679 81.481458 20.7792308L81.481458 13.4238462C81.481458 12.5623077 81.3449551 11.9341026 81.0719493 11.5392308 80.7989435 11.144359 80.335552 10.9478205 79.681775 10.9496154L79.681775 10.3626923C80.2798732 10.4201282 80.8609086 10.4479487 81.4248811 10.4461538 82.8022034 10.4710293 84.1778833 10.3391548 85.5253566 10.0530769L85.5011094 21.8076923zM89.5611727 24.1473077C88.9529515 23.4832507 88.6340498 22.6046867 88.6748019 21.7053846 88.6462327 20.9527938 88.8794832 20.2135586 89.3348653 19.6134615 89.7669769 19.0681681 90.3204871 18.6311918 90.9513471 18.3373077 91.7331178 17.9744042 92.5345188 17.6553197 93.3518225 17.3815385 94.1363198 17.1338331 94.8943697 16.8091751 95.614897 16.4123077 96.0567666 16.1784653 96.3326723 15.7192801 96.3315372 15.2196154L96.3315372 13.0280769C96.3725245 12.3710325 96.1818736 11.7204014 95.79271 11.1892308 95.4263074 10.7503846 94.8578447 10.5296154 94.09271 10.5296154 93.1946646 10.5296154 92.5103539 10.7548718 92.0397781 11.2053846 92.5200876 11.3615158 92.9448984 11.6532582 93.262916 12.0453846 93.5537907 12.4238764 93.7067979 12.8901841 93.6966719 13.3673077 93.7215864 13.9437156 93.485019 14.5006071 93.0527734 14.8830769 92.6159559 15.2582685 92.0552023 15.4578534 91.4793978 15.4430769 90.9053125 15.4799138 90.3457955 15.2528882 89.9599049 14.8265385 89.5951462 14.3957757 89.4031642 13.8451614 89.4210777 13.2811538 89.406661 12.8083447 89.5393861 12.3427111 89.8009509 11.9484615 90.1143471 11.5293332 90.5116301 11.1799982 90.9675119 10.9226923 91.5498917 10.5942842 92.1797256 10.3581433 92.8345483 10.2226923 93.6307624 10.0479039 94.4440988 9.96301311 95.259271 9.96961538 96.0642756 9.95272061 96.8679361 10.0432635 97.6489699 10.2388462 98.2843472 10.4045123 98.8650123 10.7341062 99.3328051 11.1946154 99.7491866 11.6098588 100.03724 12.13604 100.162599 12.7103846 100.323137 13.51404 100.393619 14.3330616 100.372742 15.1523077L100.372742 22.8011538C100.354019 23.1239986 100.396993 23.4474528 100.499366 23.7542308 100.58965 23.9396588 100.787469 24.0476831 100.992393 24.0234615 101.372357 23.9796848 101.727365 23.8122346 102.002694 23.5469231L102.285578 24.0234615C101.412553 24.7271544 100.316536 25.0957469 99.1954041 25.0626923 98.1626519 25.0626923 97.4442155 24.8571795 97.0400951 24.4461538 96.6162328 24.000129 96.3849482 23.4053865 96.3961965 22.7903846 95.4586371 24.3052564 94.0810354 25.0626923 92.2633914 25.0626923 91.0528262 25.0698718 90.1520866 24.7647436 89.5611727 24.1473077zM96.3180666 22.1280769L96.3180666 16.3719231C96.0917591 16.7470513 95.6139989 17.1580769 94.8847861 17.605 94.2570806 17.9810665 93.6939977 18.4555896 93.2171157 19.0103846 92.8399366 19.4788462 92.6540412 20.1519231 92.6540412 21.0323077 92.6540412 21.7987179 92.8129952 22.365 93.1309033 22.7311538 93.4502697 23.092088 93.9154491 23.2899024 94.3971474 23.2696154 95.1353407 23.275 95.7756471 22.8944872 96.3180666 22.1280769z"/>
    <path fill="#33BB40" d="M106.81981,20.9192308 C108.029639,22.222788 109.72849,22.9633353 111.507607,22.9626923 C113.641363,22.9626923 114.487322,21.9180769 114.487322,20.9407692 C114.487322,19.5946154 112.908558,19.2069231 111.108875,18.7411538 C108.684152,18.1434615 105.841838,17.4326923 105.841838,14.2988462 C105.841838,11.8569231 107.997147,9.96961538 111.230111,9.96961538 C113.54168,9.96961538 115.408716,10.7019231 116.788114,12.0346154 L115.309033,13.9676923 C114.159682,12.85925 112.617017,12.2520928 111.019968,12.2796154 C109.487005,12.2796154 108.509033,13.0119231 108.509033,14.1211538 C108.509033,15.2761538 110.020444,15.6557692 111.774326,16.1 C114.220602,16.7219231 117.130269,17.4757692 117.130269,20.6957692 C117.130269,23.1619231 115.39794,25.2726923 111.397147,25.2726923 C108.662599,25.2726923 106.685103,24.3196154 105.375753,22.9196154 L106.81981,20.9192308 Z"/>
    <polygon fill="#33BB40" points="122.853 12.479 118.356 12.479 118.356 10.19 129.941 10.19 129.941 12.479 125.444 12.479 125.444 25.003 122.853 25.003"/>
    <path fill="#33BB40" d="M139.825674 22.1630769L132.799366 22.1630769 131.721712 25.0034615 128.865927 25.0034615 134.687956 10.1957692 137.920919 10.1957692 143.745642 25.0034615 140.903328 25.0034615 139.825674 22.1630769zM133.534865 19.8746154L139.090174 19.8746154 136.323296 12.3846154 133.534865 19.8746154zM150.559113 19.4734615L147.980824 19.4734615 147.980824 25.0034615 145.378288 25.0034615 145.378288 10.1957692 151.890016 10.1957692C154.82393 10.1957692 156.739461 12.1073077 156.739461 14.8373077 156.739461 17.4811538 155.004437 18.9026923 153.237084 19.1907692L156.860697 25.0088462 153.835182 25.0088462 150.559113 19.4734615zM151.537084 12.4734615L147.980824 12.4734615 147.980824 17.1876923 151.537084 17.1876923C153.002694 17.1876923 154.069572 16.2534615 154.069572 14.8319231 154.069572 13.4103846 153.002694 12.4788462 151.537084 12.4788462L151.537084 12.4734615z"/>
    <polygon fill="#33BB40" points="162.648 12.479 158.159 12.479 158.159 10.19 169.744 10.19 169.744 12.479 165.25 12.479 165.25 25.003 162.648 25.003"/>
  </g>
</svg>
