<svg viewBox="0 0 18 20" fill="none" xmlns="http://www.w3.org/2000/svg">
<g clip-path="url(#clip0)">
<path d="M17.5 0.235614C17.499 1.19748 17.0991 2.11968 16.3882 2.79982C15.6773 3.47996 14.7134 3.86249 13.708 3.86346H3.79201C2.91732 3.86424 2.07867 4.19696 1.4601 4.78861C0.841531 5.38027 0.493561 6.18253 0.492548 7.01936C0.492548 7.08184 0.466602 7.14177 0.420416 7.18596C0.374231 7.23014 0.31159 7.25497 0.246274 7.25497C0.180958 7.25497 0.118317 7.23014 0.072132 7.18596C0.0259467 7.14177 0 7.08184 0 7.01936L0 3.62785C0.00101238 2.66598 0.400852 1.74379 1.11177 1.06364C1.82269 0.383499 2.78662 0.000969688 3.79201 1.13631e-06H17.253C17.2854 -9.51456e-05 17.3175 0.0059281 17.3474 0.0177256C17.3774 0.0295232 17.4046 0.046863 17.4276 0.0687513C17.4505 0.0906395 17.4688 0.116646 17.4812 0.145279C17.4936 0.173913 17.5 0.204611 17.5 0.235614Z" fill="#3E3E3E" fill-opacity="0.5"/>
<path d="M14.4285 6.37305H3.79201C2.78675 6.37402 1.82294 6.75644 1.11204 7.43643C0.401143 8.11642 0.0012148 9.03842 0 10.0002L0 13.3909C0 13.4534 0.0259467 13.5134 0.072132 13.5575C0.118317 13.6017 0.180958 13.6265 0.246274 13.6265C0.31159 13.6265 0.374231 13.6017 0.420416 13.5575C0.466602 13.5134 0.492548 13.4534 0.492548 13.3909C0.49356 12.554 0.841506 11.7517 1.46006 11.1599C2.07861 10.5682 2.91725 10.2353 3.79201 10.2343H10.8827C11.888 10.2333 12.8518 9.85092 13.5627 9.17093C14.2736 8.49094 14.6735 7.56894 14.6747 6.6072C14.6743 6.54496 14.6482 6.48541 14.6021 6.44154C14.5559 6.39767 14.4935 6.37305 14.4285 6.37305Z" fill="#3E3E3E" fill-opacity="0.5"/>
<path d="M11.6032 12.7441H3.79201C2.78662 12.7451 1.82269 13.1276 1.11177 13.8078C0.400852 14.4879 0.00101238 15.4101 0 16.372L0 19.7642C0 19.8267 0.0259467 19.8867 0.0721321 19.9308C0.118317 19.975 0.180958 19.9998 0.246274 19.9998C0.31159 19.9998 0.374231 19.975 0.420416 19.9308C0.466602 19.8867 0.492548 19.8267 0.492548 19.7642C0.494167 18.9277 0.842381 18.1259 1.46087 17.5346C2.07935 16.9434 2.91765 16.6108 3.79201 16.6098H8.05745C9.06284 16.6088 10.0268 16.2263 10.7377 15.5462C11.4486 14.866 11.8484 13.9438 11.8495 12.9819C11.8498 12.9508 11.8436 12.9199 11.8314 12.8911C11.8191 12.8623 11.801 12.836 11.7781 12.8139C11.7552 12.7918 11.728 12.7743 11.698 12.7623C11.6679 12.7503 11.6357 12.7441 11.6032 12.7441Z" fill="#3E3E3E" fill-opacity="0.5"/>
</g>
<defs>
<clipPath id="clip0">
<rect width="17.5" height="20" fill="white"/>
</clipPath>
</defs>
</svg>
