<svg width="57" height="57" viewBox="0 0 57 57" fill="none" xmlns="http://www.w3.org/2000/svg">
<rect x="0.5" y="0.5" width="56" height="56" rx="28" stroke="white"/>
<path fill-rule="evenodd" clip-rule="evenodd" d="M15.7292 21.2484C16.7046 20.5206 17.3361 19.3575 17.3361 18.0469C17.3361 15.8421 15.5487 14.0547 13.3438 14.0547C11.139 14.0547 9.35157 15.8421 9.35157 18.0469C9.35157 19.3575 9.98309 20.5206 10.9584 21.2485C8.27732 21.744 6.24658 24.0943 6.24658 26.9188H20.4412C20.4412 24.0942 18.4104 21.7439 15.7292 21.2484Z" fill="#33BB40"/>
<path fill-rule="evenodd" clip-rule="evenodd" d="M31.2757 21.2484C32.2511 20.5206 32.8826 19.3575 32.8826 18.0469C32.8826 15.8421 31.0952 14.0547 28.8903 14.0547C26.6855 14.0547 24.8981 15.8421 24.8981 18.0469C24.8981 19.3575 25.5296 20.5206 26.5049 21.2485C23.8238 21.744 21.7931 24.0943 21.7931 26.9188H35.9877C35.9877 24.0942 33.9569 21.7439 31.2757 21.2484Z" fill="#33BB40"/>
<path fill-rule="evenodd" clip-rule="evenodd" d="M22.7567 38.1488C23.732 37.421 24.3635 36.2579 24.3635 34.9473C24.3635 32.7425 22.5761 30.9551 20.3713 30.9551C18.1664 30.9551 16.379 32.7425 16.379 34.9473C16.379 36.2579 17.0106 37.421 17.9859 38.1489C15.3048 38.6444 13.274 40.9947 13.274 43.8192H27.4687C27.4687 40.9946 25.4379 38.6443 22.7567 38.1488Z" fill="#D9D9D9"/>
<path fill-rule="evenodd" clip-rule="evenodd" d="M38.303 38.1488C39.2783 37.421 39.9098 36.2579 39.9098 34.9473C39.9098 32.7425 38.1224 30.9551 35.9175 30.9551C33.7127 30.9551 31.9253 32.7425 31.9253 34.9473C31.9253 36.2579 32.5568 37.421 33.5322 38.1489C30.8511 38.6444 28.8203 40.9947 28.8203 43.8192H43.015C43.015 40.9946 40.9841 38.6443 38.303 38.1488Z" fill="#D9D9D9"/>
<path fill-rule="evenodd" clip-rule="evenodd" d="M46.8221 21.2484C47.7974 20.5206 48.429 19.3575 48.429 18.0469C48.429 15.8421 46.6416 14.0547 44.4367 14.0547C42.2319 14.0547 40.4445 15.8421 40.4445 18.0469C40.4445 19.3575 41.076 20.5206 42.0513 21.2485C39.3702 21.744 37.3395 24.0943 37.3395 26.9188H51.5341C51.5341 24.0942 49.5033 21.7439 46.8221 21.2484Z" fill="#33BB40"/>
</svg>
