<?xml version="1.0" encoding="utf-8"?>
<!-- Generator: Adobe Illustrator 23.0.3, SVG Export Plug-In . SVG Version: 6.00 Build 0)  -->
<svg version="1.1" id="Capa_1" xmlns="http://www.w3.org/2000/svg" xmlns:xlink="http://www.w3.org/1999/xlink" x="0px" y="0px"
	 viewBox="0 0 512 512" style="enable-background:new 0 0 512 512;" xml:space="preserve">
<style type="text/css">
	.st0{fill:#0099DF;}
	.st1{opacity:0.15;fill:#202121;enable-background:new    ;}
	.st2{fill:#EA001B;}
	.st3{fill:#F79F1A;}
	.st4{fill:#FF5F01;}
</style>
<path class="st0" d="M512,402.3c0,16.7-13.5,30.3-30.3,30.3H30.3C13.6,432.5,0,419,0,402.3V109.7C0,93,13.6,79.5,30.3,79.5h451.5
	c16.7,0,30.3,13.6,30.3,30.3L512,402.3L512,402.3z"/>
<path class="st1" d="M21.5,402.3V109.7c0-16.7,13.6-30.3,30.3-30.3H30.3C13.6,79.5,0,93,0,109.7v292.6c0,16.7,13.6,30.3,30.3,30.3
	h21.5C35.1,432.5,21.5,419,21.5,402.3z"/>
<path class="st2" d="M214.5,256c0-34.5,15.9-65.3,40.8-85.5c-18.9-15.3-43-24.5-69.3-24.5c-60.8,0-110,49.3-110,110
	c0,60.8,49.3,110,110,110c26.2,0,50.3-9.2,69.3-24.5C230.4,321.3,214.5,290.5,214.5,256z"/>
<path class="st3" d="M324.5,146c-26.2,0-50.3,9.2-69.3,24.5c24.9,20.2,40.8,51,40.8,85.5c0,34.5-15.9,65.3-40.8,85.5
	c18.9,15.3,43,24.5,69.3,24.5c60.8,0,110-49.3,110-110C434.6,195.2,385.3,146,324.5,146z"/>
<path class="st4" d="M296.1,256c0-34.5-15.9-65.3-40.8-85.5c-24.9,20.2-40.8,51-40.8,85.5c0,34.5,15.9,65.3,40.8,85.5
	C280.2,321.3,296.1,290.5,296.1,256z"/>
</svg>
