<svg width="40" height="40" viewBox="0 0 40 40" fill="none" xmlns="http://www.w3.org/2000/svg">
<path d="M20 3.46667C29.12 3.46667 36.5333 10.88 36.5333 20C36.5333 29.12 29.12 36.5333 20 36.5333C10.88 36.5333 3.46667 29.12 3.46667 20C3.46667 10.88 10.88 3.46667 20 3.46667ZM20 0C8.96 0 0 8.96 0 20C0 31.04 8.96 40 20 40C31.04 40 40 31.04 40 20C40 8.96 31.04 0 20 0Z" fill="#33BB40"/>
<path d="M28 17.8671V14.9071H26.16L27.0933 11.0938H23.7067L22.7467 14.9071H19.9733L20.9067 11.0938H17.4933L16.56 14.9071H13.76V17.8404H15.8667L14.6933 22.5071H12V25.4937H13.9467L13.12 28.9338H16.5067L17.3333 25.4671H20.1333L19.3067 28.9071H22.72L23.5467 25.4671H26.24V22.5071H24.24L25.4133 17.8671H28ZM21.0133 22.6671H17.8133L19.0933 17.6271H22.2933L21.0133 22.6671Z" fill="#33BB40"/>
</svg>
