<svg width="260" height="234" viewBox="0 0 260 234" fill="none" xmlns="http://www.w3.org/2000/svg">
<path d="M137.2 11.8C134.5 10.1 131.4 9.29999 128.3 9.29999C125.2 9.29999 122.1 10.1 119.4 11.8L6.80005 79.7H249.2L128 153L6.80005 79.7V227.1H249.2V79.7L137.2 11.8Z" fill="#33BB40"/>
<path d="M137.2 11.8C131.7 8.50001 124.8 8.50001 119.3 11.8L101.1 22.8H155.4L137.2 11.8Z" fill="#229F43"/>
<path d="M18.1 86.5V72.9L6.80005 79.7" fill="#229F43"/>
<path d="M249.2 79.7L238 72.9V86.5" fill="#229F43"/>
<path d="M252.4 74.4L238 65.6V47.9C237 48 236.1 48.1 235.1 48.1C234 48.1 232.9 48 231.8 47.9V61.9V69.1V90.2L238 86.5V72.9L249.3 79.7V227.1H6.79995V79.7L18.1 72.9V73.1V86.5L24.2999 90.2V69.4V69.2V62.2V29H79H90.8H90.9H165.6H177.5H211.5C211.2 27.4 211 25.8 211 24.1C211 23.7 211 23.3 211.1 22.9H167.4L140.5 6.60001C136.8 4.40001 132.6 3.20001 128.4 3.20001C124.1 3.20001 119.9 4.40001 116.3 6.60001L89.4 22.9H24.2999C20.9 22.9 18.1 25.7 18.1 29.1V66L5.09995 73.9C4.69995 74 4.19995 74.2 3.79995 74.4C1.89995 75.5 0.699951 77.6 0.699951 79.8V227.2C0.699951 230.6 3.49995 233.4 6.89995 233.4H249.3C252.7 233.4 255.5 230.6 255.5 227.2V79.7C255.4 77.5 254.3 75.5 252.4 74.4ZM119.3 11.8C122 10.1 125.1 9.30001 128.2 9.30001C131.3 9.30001 134.4 10.1 137.1 11.8L155.3 22.8H101L119.3 11.8Z" fill="#727272"/>
<path d="M211.5 29H165.6H90.9001H24.3V69.4V90.3L128 153L231.8 90.2V69.1V47.9C221.7 46.5 213.6 38.9 211.5 29Z" fill="white"/>
<path d="M235.1 0C222.2 0 211.7 10.1 211.1 22.8C211.1 23.2 211 23.6 211 24C211 25.7 211.2 27.3 211.5 28.9C213.6 38.8 221.7 46.4 231.8 47.8C232.9 47.9 234 48 235.1 48C236.1 48 237 47.9 238 47.8C249.9 46.4 259.2 36.2 259.2 23.9C259.2 10.7 248.4 0 235.1 0Z" fill="#33BB40"/>
<path d="M228.5 38.6L220.2 29.6C218.8 28.1 218.9 25.7 220.4 24.4C221.9 23 224.3 23.1 225.6 24.6L229.2 28.5L247.3 14.1C248.9 12.8 251.2 13.1 252.5 14.7C253.8 16.3 253.5 18.6 251.9 19.9L228.5 38.6Z" fill="white"/>
<path d="M203.8 91H51.3V99.5H203.8V91Z" fill="#CCCCCC"/>
<path d="M203.8 115.1H51.3V123.6H203.8V115.1Z" fill="#CCCCCC"/>
<path d="M154.1 63.4H152.3V54.9C152.3 53 150.7 51.4 148.8 51.4C146.9 51.4 145.3 53 145.3 54.9V63.4H142.2V58.2C142.2 56.3 140.6 54.7 138.7 54.7C136.8 54.7 135.2 56.3 135.2 58.2V63.4H127.6C126 56.2 119.6 50.9 112 50.9C103.2 50.9 96 58.1 96 66.9C96 75.7 103.2 82.9 112 82.9C119.6 82.9 126 77.5 127.6 70.4H154.1C156 70.4 157.6 68.8 157.6 66.9C157.6 65 156 63.4 154.1 63.4ZM112 75.9C107 75.9 103 71.9 103 66.9C103 61.9 107 57.9 112 57.9C117 57.9 121 61.9 121 66.9C121 71.9 117 75.9 112 75.9Z" fill="#CCCCCC"/>
<path d="M238 86.5L231.8 90.2L128 153L24.3 90.2L18.1 86.5L6.80005 79.7V227.1H249.2V79.7L238 86.5Z" fill="#70CE45"/>
<path d="M128.2 153.4L249.2 226.7H7.19995L128.2 153.4Z" fill="#33BB40"/>
<path d="M128.2 173.3C139.135 173.3 148 164.435 148 153.5C148 142.565 139.135 133.7 128.2 133.7C117.265 133.7 108.4 142.565 108.4 153.5C108.4 164.435 117.265 173.3 128.2 173.3Z" fill="white"/>
<path d="M138.8 144.2C138.8 146.4 137 148.2 134.8 148.2H124.4C122.5 148.2 120.9 149.8 120.9 151.7C120.9 151.8 120.8 152 120.6 152C120.5 152 120.3 151.9 120.3 151.7V148C120.3 145.8 122.1 144 124.3 144H138.4C138.7 144 138.8 144.1 138.8 144.2Z" fill="#70CE45"/>
<path d="M135.6 151H124.4C122.2 151 120.4 152.8 120.4 155V158.7C120.4 158.8 120.5 159 120.7 159C120.8 159 121 158.9 121 158.7C121 156.8 122.6 155.2 124.5 155.2H131.9C134.1 155.2 135.9 153.4 135.9 151.2C135.9 151.1 135.8 151 135.6 151Z" fill="#33BB40"/>
<path d="M132.7 158H124.5C122.3 158 120.5 159.8 120.5 162V165.7C120.5 165.8 120.6 166 120.8 166C120.9 166 121.1 165.9 121.1 165.7C121.1 163.8 122.7 162.2 124.6 162.2H129.1C131.3 162.2 133.1 160.4 133.1 158.2C132.9 158.1 132.8 158 132.7 158Z" fill="#229F43"/>
</svg>
