<svg width="48" height="48" viewBox="0 0 48 48" fill="none" xmlns="http://www.w3.org/2000/svg">
<path d="M9.12003 6.72021H5.28003V10.5602H9.12003V6.72021Z" fill="white"/>
<path d="M18.24 6.72021H14.4V10.5602H18.24V6.72021Z" fill="white"/>
<path d="M9.12003 15.3601H5.28003V19.2001H9.12003V15.3601Z" fill="white"/>
<path d="M18.24 15.3601H14.4V19.2001H18.24V15.3601Z" fill="white"/>
<path d="M9.12003 24H5.28003V27.84H9.12003V24Z" fill="white"/>
<path d="M18.24 24H14.4V27.84H18.24V24Z" fill="white"/>
<path d="M9.12003 32.6399H5.28003V36.4799H9.12003V32.6399Z" fill="white"/>
<path d="M18.24 32.6399H14.4V36.4799H18.24V32.6399Z" fill="white"/>
<path d="M24 17.76V0H0V48H22.08H24H48V17.76H24ZM22.08 46.08H14.88V39.84H9.12V46.08H1.92V1.92H22.08V17.76V46.08ZM28.32 24H32.448V27.84H28.32V24ZM28.32 32.64H32.448V36.48H28.32V32.64ZM37.92 47.52H32.16V39.84H37.92V47.52ZM42.288 36.48H38.16V32.64H42.288V36.48ZM42.288 27.84H38.16V24H42.288V27.84Z" fill="white"/>
</svg>
