<svg width="297" height="252" viewBox="0 0 297 252" fill="none" xmlns="http://www.w3.org/2000/svg">
<path d="M4.79546 165.75C3.12309 165.75 1.80908 164.432 1.80908 162.755V127.896C1.80908 126.219 3.12309 124.901 4.79546 124.901C6.46784 124.901 7.78185 126.219 7.78185 127.896V162.755C7.78185 164.432 6.46784 165.75 4.79546 165.75Z" fill="#727272"/>
<path d="M4.79546 118.672C3.12309 118.672 1.80908 117.354 1.80908 115.677V103.099C1.80908 101.422 3.12309 100.104 4.79546 100.104C6.46784 100.104 7.78185 101.422 7.78185 103.099V115.677C7.78185 117.354 6.46784 118.672 4.79546 118.672Z" fill="#727272"/>
<path d="M292.205 177.13C290.532 177.13 289.218 175.812 289.218 174.135V139.276C289.218 137.599 290.532 136.281 292.205 136.281C293.877 136.281 295.191 137.599 295.191 139.276V174.135C295.191 175.812 293.877 177.13 292.205 177.13Z" fill="#727272"/>
<path d="M292.205 201.927C290.532 201.927 289.218 200.609 289.218 198.932V186.354C289.218 184.677 290.532 183.359 292.205 183.359C293.877 183.359 295.191 184.677 295.191 186.354V198.932C295.191 200.609 293.877 201.927 292.205 201.927Z" fill="#727272"/>
<path d="M292.205 218.458C290.532 218.458 289.218 217.141 289.218 215.463V209.115C289.218 207.437 290.532 206.12 292.205 206.12C293.877 206.12 295.191 207.437 295.191 209.115V215.463C295.191 217.141 293.877 218.458 292.205 218.458Z" fill="#727272"/>
<path d="M4.79546 93.5156C3.12309 93.5156 1.80908 92.1979 1.80908 90.5208V60.2135C1.80908 58.5365 3.12309 57.2188 4.79546 57.2188H27.492C29.1643 57.2188 30.4783 58.5365 30.4783 60.2135C30.4783 61.8906 29.1643 63.2083 27.492 63.2083H7.78184V90.5208C7.78184 92.1979 6.46784 93.5156 4.79546 93.5156Z" fill="#727272"/>
<path d="M289.816 77.8229C288.143 77.8229 286.829 76.5052 286.829 74.8281V64.2865H271.658C269.986 64.2865 268.672 62.9688 268.672 61.2917C268.672 59.6146 269.986 58.2969 271.658 58.2969H289.816C291.488 58.2969 292.802 59.6146 292.802 61.2917V74.8281C292.802 76.5052 291.488 77.8229 289.816 77.8229Z" fill="#727272"/>
<path d="M258.996 64.2865H243.347C241.675 64.2865 240.361 62.9688 240.361 61.2917C240.361 59.6146 241.675 58.2969 243.347 58.2969H258.996C260.668 58.2969 261.982 59.6146 261.982 61.2917C261.982 62.9688 260.549 64.2865 258.996 64.2865Z" fill="#727272"/>
<path d="M280.02 234.271V82.4948C280.02 77.1042 275.6 72.6719 270.225 72.6719H26.7751C21.3996 72.6719 16.9798 77.1042 16.9798 82.4948V234.271H0.733887C0.733887 244.094 8.61793 252 18.4133 252H278.467C288.263 252 296.147 244.094 296.147 234.271H280.02ZM265.208 234.271H27.3724V84.5313H265.208V234.271Z" fill="#727272"/>
<path d="M153.756 150.297C156.026 148.26 157.34 145.385 157.34 142.151C157.34 136.042 152.323 131.01 146.23 131.01C140.138 131.01 135.121 136.042 135.121 142.151C135.121 145.505 136.554 148.38 138.824 150.417C132.612 153.172 128.193 159.401 128.193 166.708H164.626C164.626 159.401 160.207 153.052 153.756 150.297Z" fill="#CCCCCC"/>
<path d="M138.705 183.839H92.356V192.703H138.705V183.839Z" fill="#CCCCCC"/>
<path d="M198.432 183.839H152.084V192.703H198.432V183.839Z" fill="#CCCCCC"/>
<path d="M198.432 200.49H92.356V209.354H198.432V200.49Z" fill="#CCCCCC"/>
<path d="M209.781 109.448L147.903 1.99479C147.425 1.03646 146.35 0.4375 145.275 0.4375C144.2 0.4375 143.244 1.03646 142.647 1.99479L80.8884 109.448C80.4106 110.406 80.4106 111.484 80.8884 112.443C81.3662 113.401 82.4413 114 83.5164 114H207.272C208.347 114 209.303 113.401 209.9 112.443C210.497 111.484 210.378 110.406 209.781 109.448ZM88.653 108.01L145.394 9.54167L202.016 108.01H88.653Z" fill="#727272"/>
<path d="M88.6531 108.01H145.394V9.42188L88.6531 108.01Z" fill="#33BB40"/>
<path d="M145.394 9.42188V108.01H202.016L145.394 9.42188Z" fill="#70CE45"/>
<path d="M137.63 91.1198C137.63 86.5677 140.855 83.0938 145.275 83.0938C149.695 83.0938 152.92 86.5677 152.92 91.1198C152.92 95.6719 149.695 99.1459 145.275 99.1459C140.974 99.1459 137.63 95.6719 137.63 91.1198ZM139.421 51.349L138.944 39.7292H151.725L151.248 51.349L149.575 78.0625H141.213L139.421 51.349Z" fill="white"/>
</svg>
