<svg width="73" height="71" viewBox="0 0 73 71" fill="none" xmlns="http://www.w3.org/2000/svg">
<path fill-rule="evenodd" clip-rule="evenodd" d="M0.976562 35.5C0.976562 55.1061 16.8813 71 36.5007 71C56.1113 70.9787 72.0035 55.0973 72.0248 35.5C72.0248 15.8939 56.1201 0 36.5007 0C16.8813 0 0.976562 15.8939 0.976562 35.5ZM6.82841 35.4863C6.8223 19.103 20.1028 5.81422 36.4973 5.79896V5.82659C52.9005 5.82658 66.2031 19.1053 66.2214 35.4974C66.2092 51.8807 52.9138 65.1547 36.5194 65.1516C20.1249 65.1486 6.83452 51.8697 6.82841 35.4863Z" fill="#33BB40"/>
<path d="M54.5742 19.6275C54.5743 23.4105 51.5543 26.4816 47.8187 26.4974H30.1583C26.9267 26.5036 24.3058 29.15 24.2903 32.4226C24.2872 32.667 24.0907 32.8634 23.8494 32.8634C23.6089 32.8634 23.4141 32.666 23.4141 32.4226V26.0222C23.4141 22.2281 26.4513 19.1523 30.1978 19.1523H54.1389C54.2605 19.152 54.3767 19.2031 54.4594 19.2934C54.5421 19.3836 54.5837 19.5048 54.5742 19.6275Z" fill="#70CE45"/>
<path d="M49.1209 30.372H30.1924C26.4598 30.372 23.4296 33.4365 23.4141 37.2271V43.6404C23.4141 43.8844 23.6088 44.0822 23.849 44.0822C24.0901 44.0822 24.2865 43.8853 24.2896 43.6404C24.2896 42.0582 24.9085 40.5407 26.0102 39.4219C27.1119 38.3031 28.6061 37.6745 30.1642 37.6745H42.8114C46.544 37.6746 49.5742 34.61 49.5897 30.8195C49.59 30.6956 49.5397 30.5773 49.4509 30.4925C49.362 30.4077 49.2426 30.3641 49.1209 30.372Z" fill="#33BB40"/>
<path d="M44.1398 42.8346H30.2057C26.4548 42.8346 23.4141 45.6364 23.4141 49.0927V54.8918C23.4126 54.9992 23.4578 55.1027 23.5397 55.1791C23.6216 55.2556 23.7333 55.2986 23.8499 55.2986C24.0937 55.2986 24.2913 55.1165 24.2913 54.8918C24.2945 51.8984 26.9288 49.4734 30.1774 49.4734H37.8123C41.5632 49.4734 44.6039 46.6715 44.6039 43.2153C44.5887 42.9926 44.3816 42.8227 44.1398 42.8346Z" fill="#229F43"/>
</svg>
