<svg viewBox="0 0 853 841" fill="none" xmlns="http://www.w3.org/2000/svg">
<path fill-rule="evenodd" clip-rule="evenodd" d="M-115 483.671C-115 750.796 101.694 967.343 369 967.343C636.185 967.052 852.709 750.675 853 483.671C853 216.547 636.306 0 369 0C101.694 0 -115 216.547 -115 483.671ZM-35.2738 483.483C-35.357 260.268 145.584 79.2138 368.951 79.0059V79.3823C592.438 79.3822 773.679 260.299 773.929 483.634C773.762 706.849 592.619 887.701 369.252 887.659C145.885 887.618 -35.1906 706.698 -35.2738 483.483Z" fill="#394E5B" fill-opacity="0.5"/>
<path d="M615.243 267.417C615.243 318.958 574.097 360.801 523.202 361.016H282.586C238.557 361.101 202.849 397.157 202.638 441.744C202.595 445.074 199.918 447.751 196.63 447.75C193.354 447.75 190.699 445.061 190.699 441.744V354.542C190.699 302.849 232.08 260.943 283.125 260.943H609.312C610.968 260.938 612.551 261.635 613.678 262.865C614.804 264.094 615.372 265.745 615.243 267.417Z" fill="#394E5B" fill-opacity="0.5"/>
<path d="M540.943 413.806H283.051C232.196 413.805 190.911 455.558 190.699 507.203V594.582C190.699 597.906 193.352 600.6 196.625 600.6C199.911 600.6 202.586 597.918 202.628 594.582C202.628 573.024 211.061 552.35 226.071 537.106C241.081 521.863 261.439 513.299 282.666 513.299H454.979C505.834 513.299 547.119 471.547 547.331 419.902C547.334 418.215 546.649 416.602 545.439 415.447C544.228 414.292 542.601 413.697 540.943 413.806Z" fill="#394E5B" fill-opacity="0.5"/>
<path d="M473.078 583.602H283.232C232.128 583.602 190.7 621.776 190.7 668.865V747.876C190.679 749.339 191.296 750.749 192.411 751.791C193.527 752.832 195.049 753.418 196.637 753.418C199.959 753.418 202.652 750.937 202.652 747.876C202.694 707.093 238.586 674.052 282.847 674.052H386.869C437.973 674.052 479.401 635.878 479.401 588.789C479.194 585.754 476.373 583.44 473.078 583.602Z" fill="#394E5B" fill-opacity="0.5"/>
</svg>
