<svg width="21" height="20" viewBox="0 0 21 20" fill="none" xmlns="http://www.w3.org/2000/svg">
<g clip-path="url(#clip0)">
<path d="M14.2987 6.33008L9.26514 11.2601L6.68592 8.77006L5.30273 10.1001L9.36912 14.0001L15.9004 7.91009L14.2987 6.33008Z" fill="#33BB40"/>
<path d="M10.4 0C4.65626 0 0 4.47717 0 9.99998C0 15.5228 4.65626 20 10.4 20C16.1437 20 20.8 15.5228 20.8 9.99998C20.8 4.47717 16.1437 0 10.4 0ZM10.4 18.19C5.69585 18.19 1.88238 14.5232 1.88238 9.99998C1.88238 5.47678 5.69585 1.80998 10.4 1.80998C15.1017 1.81547 18.9118 5.47903 18.9176 9.99998C18.9176 14.5232 15.1042 18.19 10.4 18.19Z" fill="#33BB40"/>
</g>
<defs>
<clipPath id="clip0">
<rect width="20.8" height="20" fill="white"/>
</clipPath>
</defs>
</svg>
