<svg width="249" height="232" viewBox="0 0 249 232" fill="none" xmlns="http://www.w3.org/2000/svg">
<path d="M73.8001 175.5C77.6001 175.5 81.4001 176 85.0001 177.1C91.5001 170.5 99.7001 165.7 108.6 163C109 162.9 109.4 162.8 109.8 162.6C110.6 161.8 113.2 158 114.5 144.2C114.9 140.1 115.1 136.1 115.2 132.9C114.1 132.1 113 131.3 111.9 130.2L85.5001 156.6C85.0001 157.1 84.4001 157.3 83.7001 157.3C83.4001 157.3 83.1001 157.2 82.7001 157.1C81.8001 156.7 81.2001 155.8 81.2001 154.8V114C81.2001 113.3 81.5001 112.7 81.9001 112.2L97.0001 97.4C96.6001 95.5 96.2001 93.5 95.9001 91.5H24.9001V216.4H32.9001C32.9001 193.8 51.3001 175.5 73.8001 175.5Z" fill="#CCCCCC"/>
<path d="M151.5 96.8L167 112.3C167.5 112.8 167.7 113.4 167.7 114.1V154.9C167.7 155.9 167.1 156.8 166.2 157.2C165.3 157.6 164.2 157.4 163.5 156.7L136.8 130C135.9 131 134.9 131.8 133.9 132.5C134 135.8 134.2 140 134.6 144.3C135.9 158.1 138.5 161.9 139.3 162.7C139.7 162.8 140.1 162.9 140.5 163.1C149.4 165.8 157.5 170.6 164.1 177.2C167.7 176.2 171.5 175.6 175.3 175.6C197.8 175.6 216.2 193.9 216.2 216.5H224.2V91.5H152.6C152.1 93.3 151.8 95.1 151.5 96.8Z" fill="#CCCCCC"/>
<path d="M99.7 98.2L83.8 114.1V154.9L112 126.7C115.7 131 119.8 133.4 124.2 133.4V6.5C118.2 13.7 99.1 38.8 99.1 68.1C99.1 72.7 99.3 77.2 99.7 81.7C100 85.1 100.4 88.4 101 91.6H98.5C98.8 93.8 99.2 96.1 99.7 98.2Z" fill="#33BB40"/>
<path d="M148.6 81.6004C149 77.2004 149.2 72.7004 149.2 68.0004C149.2 38.7004 130.2 13.6004 124.1 6.40039V133.3C128.6 133.3 132.8 130.7 136.6 126.2L165.2 154.8V114L148.7 97.5004C149.1 95.5004 149.5 93.4004 149.9 91.3004H147.4C147.9 88.2004 148.3 84.9004 148.6 81.6004Z" fill="#70CE45"/>
<path d="M234.6 216.4V89.6004C234.6 85.2004 231 81.6004 226.6 81.6004H153.7C154.1 77.2004 154.3 72.7004 154.3 68.0004C154.3 31.3004 127.2 2.10039 126 0.900391C125.1 -0.0996094 123.3 -0.0996094 122.4 0.900391C121.2 2.20039 94.1 31.3004 94.1 68.0004C94.1 72.6004 94.3 77.1004 94.7 81.6004H22.4C18 81.6004 14.4 85.2004 14.4 89.6004V216.4H0.800049V219.2C0.800049 225.8 6.20005 231.2 12.8 231.2H236.1C242.7 231.2 248.1 225.8 248.1 219.2V216.4H234.6ZM102.1 97.7004C101.7 95.7004 101.3 93.6004 100.9 91.5004C100.4 88.3004 100 85.0004 99.6 81.6004C99.2 77.2004 99 72.6004 99 68.0004C99 38.7004 118 13.7004 124.1 6.40039C130.2 13.6004 149.2 38.6004 149.2 68.0004C149.2 72.6004 149 77.1004 148.6 81.6004C148.3 85.0004 147.9 88.3004 147.3 91.5004C147 93.4004 146.6 95.3004 146.2 97.2004C146 98.2004 146.4 99.1004 147.1 99.7004L162.6 115.2V148.9L138.3 124.6C137.8 124.1 137.1 123.8 136.4 123.9C135.7 123.9 135 124.3 134.6 124.8C134.3 125.2 134 125.5 133.7 125.8C132.1 127.6 130.4 128.9 128.7 129.7C125.9 131.1 123 131.2 120.2 130C118.5 129.3 116.8 128.1 115.2 126.5C114.7 126 114.3 125.6 113.8 125C113 124.1 111.6 123.9 110.6 124.5C110.4 124.6 110.2 124.8 110 125L86.2 148.8V115.1L101.1 100.2C101.9 99.7004 102.4 98.7004 102.1 97.7004ZM24.9 216.4V91.5004H95.8C96.1001 93.5004 96.5 95.5004 96.9 97.4004L82 112.4C81.5 112.9 81.3 113.5 81.3 114.2V155C81.3 156 81.9 156.9 82.8 157.3C83.1001 157.4 83.4 157.5 83.8 157.5C84.5 157.5 85.1 157.2 85.6 156.8L112 130.4C113.1 131.4 114.1 132.3 115.3 133.1C115.2 136.3 115 140.3 114.6 144.4C113.3 158.2 110.7 162 109.9 162.8C109.5 162.9 109.1 163 108.7 163.2C99.8 165.9 91.7 170.7 85.1 177.3C81.5 176.3 77.7001 175.7 73.9 175.7C51.4 175.7 33 194 33 216.6H24.9V216.4ZM37.9001 216.4C37.9001 196.6 54 180.5 73.8 180.5C78.3 180.5 82.5 181.3 86.5 182.8C92.7 175.8 100.8 170.5 110 167.8H109.9H110C110.7 167.6 111.3 167.4 112 167.3C113.4 166.5 114.5 165 115.5 163.1C118.7 156.4 119.8 144 120.1 135.4C121.4 135.8 122.8 136 124.1 136C125.7 136 127.3 135.7 128.8 135.2C129.1 143.8 130.1 156.3 133.4 163.1C134.4 165.1 135.5 166.6 136.9 167.3C137.6 167.5 138.2 167.6 138.9 167.8H139C148.2 170.5 156.3 175.8 162.5 182.8C166.4 181.3 170.7 180.5 175.2 180.5C195 180.5 211.1 196.6 211.1 216.4H37.9001ZM224.1 216.4H216.1C216.1 193.9 197.8 175.5 175.2 175.5C171.4 175.5 167.6 176 164 177.1C157.5 170.5 149.3 165.7 140.4 163C140 162.9 139.6 162.8 139.2 162.6C138.4 161.8 135.8 158 134.5 144.2C134.1 139.9 133.9 135.7 133.8 132.4C134.8 131.7 135.8 130.8 136.7 129.9L163.4 156.6C164.1 157.3 165.2 157.5 166.1 157.1C167 156.7 167.6 155.8 167.6 154.8V114C167.6 113.3 167.3 112.7 166.9 112.2L151.4 96.7004C151.8 94.9004 152.1 93.2004 152.4 91.4004H224V216.4H224.1Z" fill="#727272"/>
<path d="M124.1 62.3002C129.789 62.3002 134.4 57.6887 134.4 52.0002C134.4 46.3117 129.789 41.7002 124.1 41.7002C118.412 41.7002 113.8 46.3117 113.8 52.0002C113.8 57.6887 118.412 62.3002 124.1 62.3002Z" fill="#229F43"/>
<path d="M124.1 38.7002C116.8 38.7002 110.8 44.7002 110.8 52.0002C110.8 59.3002 116.8 65.3002 124.1 65.3002C131.4 65.3002 137.4 59.3002 137.4 52.0002C137.4 44.7002 131.5 38.7002 124.1 38.7002ZM113.8 52.0002C113.8 46.3002 118.4 41.7002 124.1 41.7002C129.8 41.7002 134.4 46.3002 134.4 52.0002C134.4 57.7002 129.8 62.3002 124.1 62.3002C118.4 62.3002 113.8 57.7002 113.8 52.0002Z" fill="white"/>
<path d="M124.1 75.1006C121.5 75.1006 119.3 77.2006 119.3 79.9006C119.3 82.5006 121.4 84.7006 124.1 84.7006C126.8 84.7006 128.9 82.6006 128.9 79.9006C128.9 77.3006 126.8 75.1006 124.1 75.1006Z" fill="#229F43"/>
<path d="M124.1 72.1006C119.8 72.1006 116.3 75.6006 116.3 79.9006C116.3 84.2006 119.8 87.7006 124.1 87.7006C128.4 87.7006 131.9 84.2006 131.9 79.9006C131.9 75.6006 128.4 72.1006 124.1 72.1006ZM119.4 79.9006C119.4 77.3006 121.5 75.1006 124.2 75.1006C126.9 75.1006 129 77.2006 129 79.9006C129 82.5006 126.9 84.7006 124.2 84.7006C121.5 84.7006 119.4 82.5006 119.4 79.9006Z" fill="white"/>
<path d="M124.1 96.8008C121.5 96.8008 119.3 98.9008 119.3 101.601C119.3 104.201 121.4 106.401 124.1 106.401C126.8 106.401 128.9 104.301 128.9 101.601C128.9 98.9008 126.8 96.8008 124.1 96.8008Z" fill="#229F43"/>
<path d="M124.1 93.8008C119.8 93.8008 116.3 97.3008 116.3 101.601C116.3 105.901 119.8 109.401 124.1 109.401C128.4 109.401 131.9 105.901 131.9 101.601C131.9 97.3008 128.4 93.8008 124.1 93.8008ZM119.4 101.601C119.4 99.0008 121.5 96.8008 124.2 96.8008C126.9 96.8008 129 98.9008 129 101.601C129 104.201 126.9 106.401 124.2 106.401C121.5 106.401 119.4 104.201 119.4 101.601Z" fill="white"/>
</svg>
