<svg width="57" height="57" viewBox="0 0 57 57" fill="none" xmlns="http://www.w3.org/2000/svg">
<rect x="0.5" y="0.5" width="56" height="56" rx="28" stroke="white"/>
<path fill-rule="evenodd" clip-rule="evenodd" d="M15.7292 21.2484C16.7046 20.5206 17.3361 19.3575 17.3361 18.0469C17.3361 15.8421 15.5487 14.0547 13.3438 14.0547C11.139 14.0547 9.35157 15.8421 9.35157 18.0469C9.35157 19.3575 9.98309 20.5206 10.9584 21.2485C8.27732 21.744 6.24658 24.0943 6.24658 26.9188H20.4412C20.4412 24.0942 18.4104 21.7439 15.7292 21.2484Z" fill="#33BB40"/>
<path fill-rule="evenodd" clip-rule="evenodd" d="M31.2757 21.2484C32.2511 20.5206 32.8826 19.3575 32.8826 18.0469C32.8826 15.8421 31.0952 14.0547 28.8903 14.0547C26.6855 14.0547 24.8981 15.8421 24.8981 18.0469C24.8981 19.3575 25.5296 20.5206 26.5049 21.2485C23.8238 21.744 21.7931 24.0943 21.7931 26.9188H35.9877C35.9877 24.0942 33.9569 21.7439 31.2757 21.2484Z" fill="#33BB40"/>
<path fill-rule="evenodd" clip-rule="evenodd" d="M15.7292 36.8637C16.7046 36.1358 17.3361 34.9727 17.3361 33.6622C17.3361 31.4573 15.5487 29.6699 13.3438 29.6699C11.139 29.6699 9.35157 31.4573 9.35157 33.6622C9.35157 34.9727 9.98309 36.1358 10.9584 36.8637C8.27732 37.3593 6.24658 39.7095 6.24658 42.534H20.4412C20.4412 39.7094 18.4104 37.3592 15.7292 36.8637Z" fill="#33BB40"/>
<path fill-rule="evenodd" clip-rule="evenodd" d="M31.2757 36.8637C32.2511 36.1358 32.8826 34.9727 32.8826 33.6622C32.8826 31.4573 31.0952 29.6699 28.8903 29.6699C26.6855 29.6699 24.8981 31.4573 24.8981 33.6622C24.8981 34.9727 25.5296 36.1358 26.5049 36.8637C23.8238 37.3593 21.7931 39.7095 21.7931 42.534H35.9877C35.9877 39.7094 33.9569 37.3592 31.2757 36.8637Z" fill="#D9D9D9"/>
<path fill-rule="evenodd" clip-rule="evenodd" d="M46.1811 36.8637C47.1565 36.1358 47.788 34.9727 47.788 33.6622C47.788 31.4573 46.0006 29.6699 43.7957 29.6699C41.5909 29.6699 39.8035 31.4573 39.8035 33.6622C39.8035 34.9727 40.435 36.1358 41.4103 36.8637C38.7292 37.3593 36.6985 39.7095 36.6985 42.534H50.8931C50.8931 39.7094 48.8623 37.3592 46.1811 36.8637Z" fill="#D9D9D9"/>
<path fill-rule="evenodd" clip-rule="evenodd" d="M46.8221 21.2484C47.7974 20.5206 48.429 19.3575 48.429 18.0469C48.429 15.8421 46.6416 14.0547 44.4367 14.0547C42.2319 14.0547 40.4445 15.8421 40.4445 18.0469C40.4445 19.3575 41.076 20.5206 42.0513 21.2485C39.3702 21.744 37.3395 24.0943 37.3395 26.9188H51.5341C51.5341 24.0942 49.5033 21.7439 46.8221 21.2484Z" fill="#33BB40"/>
</svg>
