<svg width="12" height="13" viewBox="0 0 12 13" fill="none" xmlns="http://www.w3.org/2000/svg">
<rect x="1" y="12" width="10" height="1" fill="white"/>
<rect x="11" y="13" width="6" height="1" transform="rotate(-90 11 13)" fill="white"/>
<rect y="13" width="6" height="1" transform="rotate(-90 0 13)" fill="white"/>
<path d="M6.35355 0.646446C6.15829 0.451184 5.84171 0.451184 5.64645 0.646446L2.46447 3.82843C2.2692 4.02369 2.2692 4.34027 2.46447 4.53553C2.65973 4.7308 2.97631 4.7308 3.17157 4.53553L6 1.70711L8.82843 4.53553C9.02369 4.7308 9.34027 4.7308 9.53553 4.53553C9.7308 4.34027 9.7308 4.02369 9.53553 3.82843L6.35355 0.646446ZM6.5 10L6.5 1H5.5L5.5 10H6.5Z" fill="white"/>
</svg>
