<svg width="431" height="187" viewBox="0 0 431 187" fill="none" xmlns="http://www.w3.org/2000/svg">
<rect x="1" y="1" width="429" height="185" fill="#B1B9BE" fill-opacity="0.15" stroke="#B1B9BE" stroke-width="2" stroke-dasharray="6 8"/>
<path d="M235.298 47.6428C234.605 43.5256 232.566 39.7681 229.448 36.9167C225.984 33.7455 221.48 32 216.79 32C213.166 32 209.635 33.0393 206.61 34.998C204.092 36.6236 202 38.8221 200.521 41.407C199.881 41.2871 199.215 41.2205 198.549 41.2205C192.886 41.2205 188.276 45.8307 188.276 51.4936C188.276 52.2264 188.356 52.9326 188.489 53.6255C184.825 56.2903 182.6 60.5808 182.6 65.1511C182.6 68.8419 183.972 72.4262 186.477 75.2643C189.049 78.169 192.446 79.8878 196.071 80.0877C196.111 80.0877 196.137 80.0877 196.177 80.0877H207.636C208.635 80.0877 209.435 79.2882 209.435 78.2889C209.435 77.2896 208.635 76.4901 207.636 76.4901H196.23C190.781 76.157 186.197 70.9738 186.197 65.1377C186.197 61.3669 188.222 57.8493 191.487 55.9439C192.246 55.5042 192.566 54.5848 192.273 53.7587C192.007 53.0392 191.873 52.2797 191.873 51.4669C191.873 47.7894 194.871 44.7914 198.549 44.7914C199.335 44.7914 200.108 44.9247 200.827 45.1911C201.707 45.5109 202.679 45.1112 203.079 44.2718C205.571 38.982 210.954 35.5709 216.803 35.5709C224.665 35.5709 231.154 41.4603 231.9 49.2684C231.98 50.0812 232.593 50.7341 233.392 50.8673C239.322 51.88 243.799 57.3563 243.799 63.6054C243.799 70.2277 238.589 75.9838 232.166 76.4768H222.346C221.347 76.4768 220.547 77.2763 220.547 78.2756C220.547 79.2749 221.347 80.0744 222.346 80.0744H232.233C232.273 80.0744 232.313 80.0744 232.366 80.0744C236.43 79.7812 240.228 77.9158 243.052 74.7979C245.864 71.7067 247.396 67.736 247.396 63.6054C247.383 56.1305 242.28 49.4816 235.298 47.6428Z" fill="#979797"/>
<path d="M225.797 66.8529C226.503 66.1467 226.503 65.0141 225.797 64.308L216.27 54.781C215.937 54.4479 215.471 54.248 215.005 54.248C214.538 54.248 214.072 54.4346 213.739 54.781L204.212 64.308C203.506 65.0141 203.506 66.1467 204.212 66.8529C204.558 67.1993 205.025 67.3859 205.478 67.3859C205.931 67.3859 206.397 67.2127 206.743 66.8529L213.206 60.3906V90.0906C213.206 91.09 214.005 91.8894 215.005 91.8894C216.004 91.8894 216.803 91.09 216.803 90.0906V60.3906L223.266 66.8529C223.959 67.5591 225.091 67.5591 225.797 66.8529Z" fill="#979797"/>
<path d="M142.293 112.09V129H148.258C153.297 129 156.262 125.859 156.262 120.516C156.262 115.184 153.285 112.09 148.258 112.09H142.293ZM144.918 114.352H148.012C151.586 114.352 153.578 116.555 153.578 120.539C153.578 124.535 151.598 126.727 148.012 126.727H144.918V114.352ZM158.465 129H160.996V121.617C160.996 119.871 162.004 118.781 163.633 118.781C164.125 118.781 164.57 118.84 164.77 118.922V116.566C164.582 116.531 164.266 116.473 163.902 116.473C162.449 116.473 161.348 117.328 160.938 118.77H160.879V116.672H158.465V129ZM170.395 127.207C169.035 127.207 168.145 126.504 168.145 125.426C168.145 124.371 169 123.703 170.512 123.598L173.547 123.41V124.383C173.547 125.988 172.164 127.207 170.395 127.207ZM169.691 129.211C171.309 129.211 172.867 128.344 173.582 126.973H173.641V129H176.066V120.504C176.066 118.031 174.156 116.449 171.168 116.449C168.121 116.449 166.223 118.09 166.082 120.316H168.473C168.695 119.215 169.609 118.512 171.074 118.512C172.621 118.512 173.547 119.332 173.547 120.703V121.652L170.172 121.852C167.242 122.016 165.59 123.34 165.59 125.496C165.59 127.711 167.277 129.211 169.691 129.211ZM183.777 126.949C181.832 126.949 180.566 125.379 180.566 122.801C180.566 120.234 181.832 118.605 183.777 118.605C185.758 118.605 187.059 120.27 187.059 122.801C187.059 125.344 185.758 126.949 183.777 126.949ZM183.801 133.641C187.316 133.641 189.59 131.719 189.59 128.777V116.672H187.129V118.781H187.082C186.332 117.352 184.902 116.473 183.156 116.473C179.992 116.473 177.977 118.91 177.977 122.789C177.977 126.633 180.004 129.047 183.098 129.047C184.855 129.047 186.309 128.168 187 126.832H187.047V128.859C187.047 130.547 185.875 131.672 183.895 131.672C182.453 131.672 181.328 130.992 180.965 129.961H178.422C178.738 132.094 180.895 133.641 183.801 133.641ZM201.285 127.207C199.926 127.207 199.035 126.504 199.035 125.426C199.035 124.371 199.891 123.703 201.402 123.598L204.438 123.41V124.383C204.438 125.988 203.055 127.207 201.285 127.207ZM200.582 129.211C202.199 129.211 203.758 128.344 204.473 126.973H204.531V129H206.957V120.504C206.957 118.031 205.047 116.449 202.059 116.449C199.012 116.449 197.113 118.09 196.973 120.316H199.363C199.586 119.215 200.5 118.512 201.965 118.512C203.512 118.512 204.438 119.332 204.438 120.703V121.652L201.062 121.852C198.133 122.016 196.48 123.34 196.48 125.496C196.48 127.711 198.168 129.211 200.582 129.211ZM209.418 129H211.949V121.816C211.949 119.906 213.098 118.641 214.879 118.641C216.637 118.641 217.504 119.66 217.504 121.512V129H220.047V121.02C220.047 118.195 218.488 116.461 215.77 116.461C213.871 116.461 212.559 117.328 211.891 118.734H211.832V116.672H209.418V129ZM227.125 129.211C228.918 129.211 230.324 128.309 231.051 126.902H231.098V129H233.559V112.09H231.016V118.723H230.969C230.277 117.363 228.871 116.473 227.102 116.473C224.008 116.473 221.945 118.945 221.945 122.836C221.945 126.727 224.008 129.211 227.125 129.211ZM227.793 118.605C229.738 118.605 231.039 120.281 231.039 122.836C231.039 125.414 229.738 127.066 227.793 127.066C225.789 127.066 224.535 125.438 224.535 122.836C224.535 120.246 225.789 118.605 227.793 118.605ZM241.34 112.09V129H247.305C252.344 129 255.309 125.859 255.309 120.516C255.309 115.184 252.332 112.09 247.305 112.09H241.34ZM243.965 114.352H247.059C250.633 114.352 252.625 116.555 252.625 120.539C252.625 124.535 250.645 126.727 247.059 126.727H243.965V114.352ZM257.512 129H260.043V121.617C260.043 119.871 261.051 118.781 262.68 118.781C263.172 118.781 263.617 118.84 263.816 118.922V116.566C263.629 116.531 263.312 116.473 262.949 116.473C261.496 116.473 260.395 117.328 259.984 118.77H259.926V116.672H257.512V129ZM270.145 129.234C273.672 129.234 275.992 126.809 275.992 122.836C275.992 118.875 273.66 116.449 270.145 116.449C266.629 116.449 264.297 118.875 264.297 122.836C264.297 126.809 266.617 129.234 270.145 129.234ZM270.145 127.148C268.164 127.148 266.875 125.578 266.875 122.836C266.875 120.105 268.164 118.535 270.145 118.535C272.125 118.535 273.414 120.105 273.414 122.836C273.414 125.578 272.137 127.148 270.145 127.148ZM284.371 116.473C282.59 116.473 281.172 117.375 280.445 118.793H280.398V116.672H277.949V133.078H280.48V126.973H280.539C281.242 128.344 282.648 129.211 284.418 129.211C287.512 129.211 289.562 126.738 289.562 122.836C289.562 118.934 287.5 116.473 284.371 116.473ZM283.703 127.066C281.758 127.066 280.469 125.402 280.469 122.836C280.469 120.293 281.77 118.605 283.703 118.605C285.707 118.605 286.961 120.258 286.961 122.836C286.961 125.426 285.707 127.066 283.703 127.066Z" fill="#898989"/>
<path d="M149.564 150.149C152.052 150.149 153.73 148.33 153.73 145.43C153.73 142.521 152.052 140.71 149.564 140.71C147.086 140.71 145.398 142.521 145.398 145.43C145.398 148.33 147.077 150.149 149.564 150.149ZM149.564 149.121C147.771 149.121 146.585 147.75 146.585 145.43C146.585 143.109 147.771 141.738 149.564 141.738C151.357 141.738 152.553 143.109 152.553 145.43C152.553 147.75 151.357 149.121 149.564 149.121ZM155.277 150H156.438V144.305C156.438 142.828 157.264 141.817 158.564 141.817C158.96 141.817 159.285 141.879 159.435 141.949V140.807C159.294 140.771 159.021 140.71 158.714 140.71C157.589 140.71 156.736 141.369 156.402 142.485H156.376V140.859H155.277V150ZM222.725 153.305C224.228 153.305 224.878 152.707 225.678 150.554L229.272 140.859H228.051L225.265 148.84H225.238L222.461 140.859H221.213L224.641 150.062L224.395 150.747C223.99 151.89 223.533 152.312 222.698 152.312C222.514 152.312 222.285 152.294 222.145 152.259V153.252C222.276 153.278 222.54 153.305 222.725 153.305ZM233.939 150.149C236.427 150.149 238.105 148.33 238.105 145.43C238.105 142.521 236.427 140.71 233.939 140.71C231.461 140.71 229.773 142.521 229.773 145.43C229.773 148.33 231.452 150.149 233.939 150.149ZM233.939 149.121C232.146 149.121 230.96 147.75 230.96 145.43C230.96 143.109 232.146 141.738 233.939 141.738C235.732 141.738 236.928 143.109 236.928 145.43C236.928 147.75 235.732 149.121 233.939 149.121ZM246.982 140.859H245.822V146.282C245.822 147.996 244.75 149.112 243.159 149.112C241.63 149.112 240.769 148.216 240.769 146.599V140.859H239.6V146.801C239.6 148.857 240.839 150.149 242.825 150.149C244.275 150.149 245.374 149.429 245.857 148.304H245.884V150H246.982V140.859ZM248.986 150H250.146V144.305C250.146 142.828 250.973 141.817 252.273 141.817C252.669 141.817 252.994 141.879 253.144 141.949V140.807C253.003 140.771 252.73 140.71 252.423 140.71C251.298 140.71 250.445 141.369 250.111 142.485H250.085V140.859H248.986V150ZM258.558 150H259.727V141.826H261.687V140.859H259.718V139.726C259.718 138.706 260.184 138.258 261.062 138.258C261.309 138.258 261.555 138.284 261.739 138.319V137.361C261.546 137.326 261.212 137.291 260.896 137.291C259.366 137.291 258.558 138.047 258.558 139.699V140.859H257.283V141.826H258.558V150ZM263.286 150H264.446V140.859H263.286V150ZM263.866 139.014C264.297 139.014 264.648 138.671 264.648 138.24C264.648 137.818 264.297 137.476 263.866 137.476C263.444 137.476 263.093 137.818 263.093 138.24C263.093 138.671 263.444 139.014 263.866 139.014ZM266.608 150H267.769V137.317H266.608V150ZM273.464 141.729C275.116 141.729 276.215 142.986 276.241 144.788H270.599C270.695 142.986 271.829 141.729 273.464 141.729ZM276.171 147.407C275.916 148.409 274.958 149.13 273.578 149.13C271.759 149.13 270.59 147.847 270.59 145.781V145.711H277.437V145.219C277.437 142.494 275.907 140.71 273.481 140.71C271.003 140.71 269.395 142.617 269.395 145.456C269.395 148.356 270.985 150.149 273.552 150.149C275.564 150.149 277.05 148.989 277.322 147.407H276.171ZM278.808 143.303C278.808 144.516 279.599 145.298 281.251 145.711L282.736 146.08C283.958 146.379 284.415 146.801 284.415 147.592C284.415 148.55 283.51 149.191 282.139 149.191C280.768 149.191 279.871 148.523 279.704 147.442H278.544C278.693 149.051 280.108 150.149 282.068 150.149C284.134 150.149 285.584 149.051 285.584 147.504C285.584 146.194 284.898 145.526 283.07 145.069L281.717 144.744C280.495 144.445 279.959 143.988 279.959 143.241C279.959 142.327 280.812 141.668 282.06 141.668C283.325 141.668 284.16 142.336 284.301 143.417H285.417C285.303 141.809 283.967 140.71 282.095 140.71C280.161 140.71 278.808 141.791 278.808 143.303Z" fill="#979797"/>
<path d="M168.777 150.149C171.08 150.149 172.645 148.277 172.645 145.43C172.645 142.582 171.08 140.71 168.786 140.71C167.354 140.71 166.176 141.51 165.657 142.767H165.631V137.317H164.462V150H165.578V148.066H165.604C166.149 149.35 167.318 150.149 168.777 150.149ZM168.558 141.738C170.315 141.738 171.449 143.197 171.449 145.43C171.449 147.671 170.315 149.121 168.558 149.121C166.835 149.121 165.622 147.627 165.622 145.43C165.622 143.241 166.844 141.738 168.558 141.738ZM174.209 150H175.369V144.305C175.369 142.828 176.195 141.817 177.496 141.817C177.892 141.817 178.217 141.879 178.366 141.949V140.807C178.226 140.771 177.953 140.71 177.646 140.71C176.521 140.71 175.668 141.369 175.334 142.485H175.308V140.859H174.209V150ZM182.805 150.149C185.292 150.149 186.971 148.33 186.971 145.43C186.971 142.521 185.292 140.71 182.805 140.71C180.326 140.71 178.639 142.521 178.639 145.43C178.639 148.33 180.317 150.149 182.805 150.149ZM182.805 149.121C181.012 149.121 179.825 147.75 179.825 145.43C179.825 143.109 181.012 141.738 182.805 141.738C184.598 141.738 185.793 143.109 185.793 145.43C185.793 147.75 184.598 149.121 182.805 149.121ZM199.908 140.859H198.739L196.691 148.699H196.665L194.389 140.859H193.211L190.935 148.699H190.908L188.86 140.859H187.683L190.284 150H191.515L193.782 142.415H193.809L196.085 150H197.315L199.908 140.859ZM200.901 143.303C200.901 144.516 201.692 145.298 203.345 145.711L204.83 146.08C206.052 146.379 206.509 146.801 206.509 147.592C206.509 148.55 205.604 149.191 204.232 149.191C202.861 149.191 201.965 148.523 201.798 147.442H200.638C200.787 149.051 202.202 150.149 204.162 150.149C206.228 150.149 207.678 149.051 207.678 147.504C207.678 146.194 206.992 145.526 205.164 145.069L203.811 144.744C202.589 144.445 202.053 143.988 202.053 143.241C202.053 142.327 202.905 141.668 204.153 141.668C205.419 141.668 206.254 142.336 206.395 143.417H207.511C207.396 141.809 206.061 140.71 204.188 140.71C202.255 140.71 200.901 141.791 200.901 143.303ZM212.854 141.729C214.507 141.729 215.605 142.986 215.632 144.788H209.989C210.086 142.986 211.22 141.729 212.854 141.729ZM215.562 147.407C215.307 148.409 214.349 149.13 212.969 149.13C211.149 149.13 209.98 147.847 209.98 145.781V145.711H216.827V145.219C216.827 142.494 215.298 140.71 212.872 140.71C210.394 140.71 208.785 142.617 208.785 145.456C208.785 148.356 210.376 150.149 212.942 150.149C214.955 150.149 216.44 148.989 216.713 147.407H215.562Z" fill="#33BB40"/>
</svg>
