<svg width="22" height="22" viewBox="0 0 22 22" fill="none" xmlns="http://www.w3.org/2000/svg">
<path d="M7.04002 7.03968L9.99975 4.08015V16.3325C9.99975 16.8848 10.4475 17.3325 10.9997 17.3325C11.552 17.3325 11.9997 16.8848 11.9997 16.3325V4.08022L14.9592 7.03968C15.1545 7.23495 15.4104 7.33262 15.6663 7.33262C15.9222 7.33262 16.1781 7.23502 16.3734 7.03968C16.7639 6.64915 16.7639 6.01602 16.3734 5.62548L11.7071 0.959082C11.6836 0.935682 11.659 0.913549 11.6335 0.892549C11.6224 0.883482 11.6107 0.875616 11.5995 0.867149C11.5847 0.856016 11.5702 0.844682 11.5548 0.834349C11.541 0.825082 11.5267 0.817082 11.5125 0.808616C11.4987 0.800282 11.4851 0.791682 11.4709 0.784016C11.4564 0.776282 11.4416 0.769816 11.4268 0.762816C11.4119 0.755816 11.3974 0.748416 11.3821 0.742082C11.3679 0.736216 11.3533 0.731416 11.3389 0.726216C11.3226 0.720349 11.3065 0.714082 11.2898 0.709016C11.2754 0.704682 11.2608 0.701549 11.2463 0.697882C11.2293 0.693549 11.2123 0.688749 11.195 0.685282C11.1783 0.682016 11.1615 0.680082 11.1447 0.677616C11.1293 0.675349 11.114 0.672482 11.0983 0.670949C11.0675 0.667949 11.0367 0.666482 11.0057 0.666282C11.0037 0.666282 11.0018 0.666016 10.9998 0.666016C10.9979 0.666016 10.9959 0.666282 10.9939 0.666282C10.963 0.666416 10.9321 0.667949 10.9012 0.670949C10.8859 0.672482 10.871 0.675282 10.8559 0.677482C10.8387 0.679949 10.8215 0.681949 10.8045 0.685349C10.7875 0.688682 10.7711 0.693349 10.7545 0.697549C10.7395 0.701349 10.7244 0.704682 10.7095 0.709149C10.6934 0.714016 10.6777 0.720082 10.662 0.725749C10.647 0.731149 10.6319 0.736082 10.6171 0.742216C10.6024 0.748282 10.5884 0.755416 10.5741 0.762149C10.5588 0.769349 10.5433 0.776216 10.5283 0.784216C10.5147 0.791482 10.5019 0.799749 10.4886 0.807616C10.4737 0.816416 10.4588 0.824816 10.4443 0.834482C10.4299 0.844149 10.4163 0.854949 10.4024 0.865282C10.3901 0.874416 10.3777 0.882882 10.3658 0.892682C10.3415 0.912616 10.3182 0.933749 10.2959 0.955816C10.2948 0.956882 10.2937 0.957749 10.2925 0.958816L5.62588 5.62542C5.23542 6.01595 5.23535 6.64908 5.62588 7.03962C6.01635 7.43021 6.64955 7.43008 7.04002 7.03968Z" fill="white"/>
<path d="M21 10.666C20.4477 10.666 20 11.1137 20 11.666V19.3327H2V11.666C2 11.1137 1.55227 10.666 1 10.666C0.447733 10.666 0 11.1137 0 11.666V20.3327C0 20.885 0.447733 21.3327 1 21.3327H21C21.5523 21.3327 22 20.885 22 20.3327V11.666C22 11.1137 21.5523 10.666 21 10.666Z" fill="white"/>
</svg>
