<svg viewBox="0 0 552 334" fill="none" xmlns="http://www.w3.org/2000/svg">
<g clip-path="url(#clip0)">
<path d="M552.045 0.0439453L346.998 126.862V76.1074L552.045 0.0439453Z" fill="#61808C"/>
<path d="M552.045 0.0449219L346.998 76.1084L319.012 48.4738L552.045 0.0449219Z" fill="#6A8B9B"/>
<path d="M552.045 0.0439453L385.222 135.891L356.827 86.7782L552.045 0.0439453Z" fill="#AFD0DD"/>
<path d="M552.045 0.0439453L346.998 76.1074V126.862L356.827 86.7782L552.045 0.0439453Z" fill="#475E6B"/>
</g>
<path d="M1 333C26.4369 327.215 49.4705 316.808 71.8198 303.411C86.7708 294.449 100.516 284.173 113.632 272.691C128.754 259.453 143.995 244.43 153.877 226.741C164.157 208.34 169.646 178.445 157.797 159.383C145.992 140.394 125 133.227 103.441 132.057C85.3878 131.077 69.6023 138.141 61.3667 154.597C54.0102 169.296 48.6674 179.984 55.6175 207.857C63.2247 224.692 83.6929 236.64 100.174 242.841C132.681 255.072 170.016 253.04 203.268 244.756C216.538 241.45 228.565 236.322 238.721 227.002C250.904 215.823 259.268 200.97 266.03 186.057C274.475 167.43 279.007 147.248 268.338 128.489C263.509 119.998 249.775 115.707 241.552 122.005C230.493 130.476 227.972 144.176 233.843 156.424C238.458 166.052 246.021 173.066 255.49 177.876C265.202 182.81 280.982 184.529 291.422 181.14C303.576 177.193 311.685 168.51 320.168 159.47C324.123 155.255 335.178 139.661 342 128.489" stroke="#475D6A" stroke-width="2" stroke-linecap="round" stroke-linejoin="round" stroke-dasharray="2 8"/>
<defs>
<clipPath id="clip0">
<rect width="233" height="136" fill="white" transform="translate(319)"/>
</clipPath>
</defs>
</svg>
