<svg width="40" height="40" viewBox="0 0 40 40" fill="none" xmlns="http://www.w3.org/2000/svg">
<path d="M20 3.46667C29.12 3.46667 36.5333 10.88 36.5333 20C36.5333 29.12 29.12 36.5333 20 36.5333C10.88 36.5333 3.46667 29.12 3.46667 20C3.46667 10.88 10.88 3.46667 20 3.46667ZM20 0C8.96 0 0 8.96 0 20C0 31.04 8.96 40 20 40C31.04 40 40 31.04 40 20C40 8.96 31.04 0 20 0Z" fill="#33BB40"/>
<path d="M27.2811 28.8003H27.0678L23.6011 22.4803C23.0411 21.467 23.0411 20.267 23.6011 19.2537L27.1478 12.8003H27.2811C27.8678 12.8003 28.3478 12.3203 28.3478 11.7337C28.3478 11.147 27.8678 10.667 27.2811 10.667H12.8811C12.2945 10.667 11.8145 11.147 11.8145 11.7337C11.8145 12.3203 12.2945 12.8003 12.8811 12.8003H13.0145L16.5611 19.2537C17.1211 20.267 17.1211 21.467 16.5611 22.4803L13.0945 28.8003H12.8811C12.2945 28.8003 11.8145 29.2803 11.8145 29.867C11.8145 30.4537 12.2945 30.9337 12.8811 30.9337H27.2811C27.8678 30.9337 28.3478 30.4537 28.3478 29.867C28.3478 29.2803 27.8678 28.8003 27.2811 28.8003ZM23.2545 28.5337L20.1078 22.6403L16.9611 28.5337H15.7878L18.5611 23.4937C19.4945 21.787 19.4945 19.7337 18.5611 18.027L15.6811 12.8003H24.4811L21.6278 18.027C20.6945 19.7337 20.6945 21.787 21.6278 23.4937L24.3745 28.5337H23.2545Z" fill="#33BB40"/>
<path d="M21.9755 16H18.2422L20.1089 18.9067L21.9755 16Z" fill="#33BB40"/>
</svg>
