<svg width="30" height="30" viewBox="0 0 30 30" fill="none" xmlns="http://www.w3.org/2000/svg">
<path d="M30 23.5711C30 24.5505 29.2061 25.3446 28.2267 25.3446H1.77334C0.793945 25.3446 0 24.5505 0 23.5711V6.42867C0 5.44928 0.793945 4.65527 1.77334 4.65527H28.2267C29.2061 4.65527 30 5.44928 30 6.42867V23.5711Z" fill="#306FC5"/>
<path opacity="0.15" d="M1.26076 23.5711V6.42867C1.26076 5.44928 2.05482 4.65527 3.03422 4.65527H1.77328C0.793945 4.65527 0 5.44922 0 6.42867V23.5712C0 24.5506 0.793945 25.3446 1.77334 25.3446H3.03428C2.05488 25.3446 1.26076 24.5505 1.26076 23.5711Z" fill="#202121"/>
<path d="M4.37109 12.9348H5.26746L4.81939 11.7939L4.37109 12.9348Z" fill="white"/>
<path d="M9.1377 16.7646V17.2944H10.6453V17.8649H9.1377V18.4762H10.8081L11.5822 17.6204L10.8489 16.7646H9.1377Z" fill="white"/>
<path d="M20.9128 11.7939L20.4238 12.9348H21.361L20.9128 11.7939Z" fill="white"/>
<path d="M13.4969 18.8018V16.4795L12.4375 17.6204L13.4969 18.8018Z" fill="white"/>
<path d="M15.4933 17.1315C15.4526 16.8871 15.2894 16.7646 15.0449 16.7646H14.1895V17.498H15.0859C15.3303 17.4981 15.4933 17.3759 15.4933 17.1315Z" fill="white"/>
<path d="M18.3449 17.4159C18.4264 17.375 18.4673 17.2527 18.4673 17.1307C18.508 16.9679 18.4264 16.8863 18.3449 16.8455C18.2636 16.8047 18.1412 16.8047 18.0191 16.8047H17.2041V17.4567H18.0191C18.1411 17.4567 18.2635 17.4567 18.3449 17.4159Z" fill="white"/>
<path d="M24.2121 10.7344V11.2233L23.9678 10.7344H22.053V11.2233L21.8085 10.7344H19.2009C18.7528 10.7344 18.386 10.8159 18.0602 10.9789V10.7344H16.2268V10.7752V10.9789C16.0232 10.816 15.7787 10.7344 15.4528 10.7344H8.89318L8.44482 11.753L7.99676 10.7344H6.5301H5.91891V11.2233L5.71518 10.7344H5.67439H3.9225L3.10752 12.6492L2.17055 14.7271L2.15332 14.7679H2.17055H4.24846H4.27447L4.28924 14.7271L4.53381 14.1161H5.06344L5.30789 14.7679H7.67074V14.7271V14.279L7.87459 14.7679H9.05602L9.25963 14.279V14.7271V14.7679H10.1967H14.8822H14.9229V13.7085H15.0046C15.086 13.7085 15.086 13.7085 15.086 13.8308V14.7271H18.0195V14.4827C18.264 14.6051 18.6304 14.7271 19.1194 14.7271H20.3418L20.5863 14.0754H21.1565L21.401 14.7271H23.7639V14.3198V14.1161L24.1308 14.7271H24.2121H24.2529H26.0456V10.7344H24.2122H24.2121ZM10.4006 14.1569H9.99305H9.74865V13.9126V11.916L9.70787 12.0094V12.0083L8.76006 14.1569H8.73006H8.51215H8.15959L7.18184 11.916V14.1569H5.79668L5.5115 13.5458H4.12611L3.84088 14.1569H3.12469L4.32996 11.3048H5.34844L6.4892 14.0346V11.3048H6.73359H7.56861L7.58783 11.3457H7.58924L8.10328 12.4645L8.47242 13.3027L8.48549 13.2605L9.30029 11.3049H10.4005V14.1569H10.4006ZM13.2119 11.916H11.6229V12.4456H13.1711V13.016H11.6229V13.5865H13.2119V14.1975H10.9303V11.3049H13.2119V11.916ZM16.1179 12.9666C16.1189 12.9675 16.1203 12.9681 16.1215 12.969C16.137 12.9853 16.1501 13.0017 16.1614 13.0173C16.2394 13.1196 16.3025 13.2718 16.3057 13.4949C16.3059 13.4988 16.3061 13.5026 16.3063 13.5064C16.3063 13.5087 16.3068 13.5106 16.3068 13.5129C16.3068 13.5142 16.3066 13.5152 16.3066 13.5164C16.3076 13.5388 16.3082 13.5618 16.3082 13.5865V14.157H15.6971V13.8309C15.6971 13.6679 15.6971 13.4234 15.5747 13.2605C15.5363 13.222 15.4973 13.1966 15.4549 13.1786C15.3938 13.139 15.2781 13.1384 15.086 13.1384H14.3524V14.157H13.66V11.3049H15.2083C15.5747 11.3049 15.8193 11.3049 16.0231 11.4271C16.2227 11.547 16.3433 11.7458 16.3479 12.0606C16.3385 12.4942 16.0601 12.7321 15.86 12.8123C15.86 12.8123 15.996 12.8397 16.1179 12.9666ZM17.4898 14.1569H16.7971V11.3048H17.4898V14.1569ZM25.4347 14.1569H24.5382L23.2345 11.9974V13.7901L23.2302 13.7859V14.1587H22.5419V14.157H21.8492L21.6047 13.5458H20.1786L19.9342 14.1976H19.1601C18.8344 14.1976 18.4267 14.1162 18.1823 13.8717C17.9379 13.6273 17.8158 13.3013 17.8158 12.7717C17.8158 12.3643 17.8972 11.9566 18.1823 11.6308C18.3859 11.3862 18.7528 11.3049 19.2008 11.3049H19.8529V11.916H19.2008C18.9564 11.916 18.8344 11.9566 18.6711 12.079C18.5491 12.2012 18.4675 12.4456 18.4675 12.7308C18.4675 13.0568 18.5083 13.2605 18.6711 13.4234C18.7936 13.5458 18.9564 13.5866 19.1601 13.5866H19.4453L20.3822 11.3458H20.7899H21.4009L22.5418 14.0755V13.9363V13.0161V12.9347V11.3459H23.5603L24.7416 13.3421V11.3459H25.4346V14.157H25.4347V14.1569Z" fill="white"/>
<path d="M15.5371 12.4928C15.549 12.48 15.5598 12.4656 15.5689 12.4491C15.6058 12.3907 15.6481 12.2854 15.6253 12.1418C15.6244 12.1287 15.622 12.1165 15.6192 12.1047C15.6184 12.1014 15.6185 12.0985 15.6176 12.0953L15.6172 12.0953C15.597 12.0255 15.5452 11.9826 15.4936 11.9566C15.4119 11.916 15.2897 11.916 15.1675 11.916H14.3525V12.568H15.1675C15.2897 12.568 15.412 12.568 15.4936 12.5271C15.5058 12.5209 15.5167 12.5125 15.5272 12.5029L15.5273 12.5035C15.5274 12.5034 15.5316 12.4991 15.5371 12.4928Z" fill="white"/>
<path d="M27.8385 18.231C27.8385 17.9458 27.7571 17.6605 27.6349 17.4568V15.6235H27.633V15.5011C27.633 15.5011 25.9253 15.5011 25.6712 15.5011C25.4171 15.5011 25.1088 15.7455 25.1088 15.7455V15.5011H23.2347C22.9494 15.5011 22.5829 15.5827 22.4197 15.7455V15.5011H19.0789V15.6235V15.7454C18.8347 15.5419 18.3861 15.501 18.1826 15.501H15.9824V15.6234V15.7454C15.7788 15.5418 15.2896 15.501 15.0451 15.501H12.6009L12.0304 16.1122L11.5007 15.501H11.3301H11.0525H7.83398V15.6234V15.9452V19.6162H11.4193L12.0084 19.0269L12.5191 19.6162H12.56H14.6259H14.7195H14.7603H14.8008V19.2088V18.6792H15.0047C15.2896 18.6792 15.6565 18.6792 15.9417 18.5568V19.5752V19.6569H17.7751V19.5752V18.5975H17.8564C17.9788 18.5975 17.9788 18.5975 17.9788 18.7198V19.5752V19.6569H23.5196C23.8866 19.6569 24.253 19.5752 24.4567 19.4123V19.5752V19.6569H26.2087C26.5752 19.6569 26.9422 19.6162 27.1866 19.4531C27.5617 19.2281 27.7982 18.8297 27.8333 18.3545C27.835 18.3405 27.837 18.3264 27.8383 18.3123L27.8359 18.31C27.8374 18.2837 27.8385 18.2576 27.8385 18.231ZM15.0047 17.9866H14.1897V18.1085V18.3531V18.5976V19.0458H12.8505L12.0711 18.1494L12.0684 18.1523L12.0304 18.1085L11.134 19.0458H8.52656V16.1938H11.1748L11.8983 16.9863L12.0504 17.1523L12.0711 17.1309L12.9268 16.1939H15.0861C15.5051 16.1939 15.9744 16.2973 16.1522 16.7237C16.1736 16.8081 16.1861 16.902 16.1861 17.0087C16.1861 17.8235 15.6156 17.9866 15.0047 17.9866ZM19.0789 17.9457C19.1603 18.0677 19.2011 18.2309 19.2011 18.4755V19.0457H18.5086V18.6792C18.5086 18.5159 18.5086 18.2309 18.3862 18.1085C18.3049 17.9866 18.1417 17.9866 17.8975 17.9866H17.1642V19.0458H16.4716V16.1531H18.0197C18.3454 16.1531 18.6306 16.1531 18.8347 16.2752C19.0382 16.3975 19.2011 16.6012 19.2011 16.9272C19.2011 17.3753 18.9161 17.6197 18.7123 17.7013C18.9161 17.7825 19.0382 17.8642 19.0789 17.9457ZM21.8903 16.764H20.3011V17.2937H21.8494V17.8642H20.3011V18.4346H21.8903V19.0457H19.6087V16.153H21.8903V16.764ZM23.6013 19.0458H22.2975V18.4347H23.6013C23.7233 18.4347 23.805 18.4347 23.8867 18.3531C23.9275 18.3123 23.968 18.231 23.968 18.1494C23.968 18.0677 23.9275 17.9866 23.8867 17.9458C23.8458 17.9051 23.7642 17.8643 23.642 17.8643C22.9901 17.8235 22.216 17.8643 22.216 16.968C22.216 16.5606 22.4605 16.1123 23.1939 16.1123H24.5383V16.8049H23.2754C23.1532 16.8049 23.0716 16.8049 22.99 16.8456C22.9088 16.8865 22.9088 16.968 22.9088 17.0494C22.9088 17.1717 22.99 17.2125 23.0715 17.2529C23.1532 17.2938 23.2346 17.2938 23.316 17.2938H23.6827C24.0495 17.2938 24.2938 17.3753 24.4568 17.5383C24.5791 17.6606 24.6606 17.8643 24.6606 18.1494C24.6606 18.7604 24.2939 19.0458 23.6013 19.0458ZM27.1052 18.7604C26.9424 18.9236 26.6571 19.0458 26.2495 19.0458H24.946V18.4347H26.2494C26.3717 18.4347 26.4534 18.4347 26.5348 18.3531C26.5754 18.3123 26.6163 18.231 26.6163 18.1494C26.6163 18.0677 26.5754 17.9866 26.5348 17.9458C26.494 17.9051 26.4126 17.8643 26.2903 17.8643C25.6386 17.8235 24.8643 17.8643 24.8643 16.9681C24.8643 16.5809 25.0859 16.2311 25.6322 16.1272C25.6976 16.1181 25.7666 16.1123 25.8422 16.1123H27.1868V16.8049H26.2903H25.9645H25.9237C25.8014 16.8049 25.72 16.8049 25.6386 16.8456C25.5976 16.8865 25.5568 16.968 25.5568 17.0494C25.5568 17.1717 25.5976 17.2125 25.72 17.2529C25.8014 17.2938 25.8829 17.2938 25.9645 17.2938H26.005H26.331C26.5091 17.2938 26.6438 17.3157 26.767 17.359C26.8798 17.3999 27.2534 17.567 27.337 18.0032C27.3442 18.0489 27.3496 18.0966 27.3496 18.1494C27.3496 18.3939 27.2681 18.5976 27.1052 18.7604Z" fill="white"/>
</svg>
