<svg width="31" height="22" viewBox="0 0 31 22" fill="none" xmlns="http://www.w3.org/2000/svg">
<path d="M30.2677 19.7233C30.2677 20.7115 29.4667 21.5126 28.4785 21.5126H1.78916C0.80103 21.5126 0 20.7114 0 19.7233V2.42789C0 1.43976 0.80103 0.638672 1.78916 0.638672H28.4785C29.4667 0.638672 30.2676 1.43976 30.2676 2.42789L30.2677 19.7233Z" fill="#0099DF"/>
<path opacity="0.15" d="M1.27201 19.7233V2.42789C1.27201 1.43976 2.07316 0.638672 3.06129 0.638672H1.7891C0.80103 0.638672 0 1.43982 0 2.42789V19.7233C0 20.7115 0.80103 21.5126 1.78916 21.5126H3.06135C2.07322 21.5126 1.27201 20.7114 1.27201 19.7233Z" fill="#202121"/>
<path d="M12.8286 11.0756C12.8286 9.16493 13.7044 7.45998 15.0746 6.34355C14.0334 5.49515 12.7063 4.98633 11.2613 4.98633C7.91469 4.98633 5.20215 7.71243 5.20215 11.0755C5.20215 14.4385 7.91469 17.1643 11.2613 17.1643C12.7065 17.1643 14.0334 16.6558 15.0746 15.8071C13.7044 14.691 12.8286 12.9862 12.8286 11.0756Z" fill="#EA001B"/>
<path d="M18.9103 4.98633C17.4564 4.98633 16.122 5.49515 15.0742 6.34354C16.4529 7.45996 17.3339 9.1649 17.3339 11.0755C17.3339 12.9861 16.4529 14.6909 15.0742 15.8071C16.122 16.6557 17.4566 17.1643 18.9103 17.1643C22.2771 17.1643 25.0058 14.4385 25.0058 11.0755C25.0058 7.71241 22.2769 4.98633 18.9103 4.98633Z" fill="#F79F1A"/>
<path d="M17.3801 11.0762C17.3801 9.16657 16.4927 7.46252 15.104 6.34668C13.7157 7.46252 12.8281 9.16657 12.8281 11.0762C12.8281 12.9858 13.7156 14.6897 15.104 15.8053C16.4926 14.6897 17.3801 12.9858 17.3801 11.0762Z" fill="#FF5F01"/>
</svg>
