<svg width="54" height="54" viewBox="0 0 54 54" fill="none" xmlns="http://www.w3.org/2000/svg">
<path d="M32.4113 41.6329C30.2693 39.5624 28.1837 37.4919 26.0981 35.4215C25.9854 35.3095 25.6472 35.2536 25.5344 35.3095C24.4635 35.8691 23.5052 36.5406 22.7161 37.436C21.6451 38.723 20.9123 40.1779 20.6305 41.8007C14.6555 41.9686 8.17327 36.5966 8.17327 29.4339C8.28601 29.3779 8.39874 29.3779 8.56784 29.322C11.3862 28.7064 13.4154 27.1396 14.7119 24.5655C14.7683 24.3976 14.7119 24.0619 14.5428 23.95C12.5136 21.8795 10.428 19.865 8.39874 17.8505C8.1169 17.5707 7.83507 17.5707 7.55323 17.8505C5.80584 19.5852 4.05845 21.3199 2.31106 23.1106C2.19832 23.2225 2.08559 23.3904 2.02922 23.5582C1.24008 26.3002 1.01461 29.0981 1.46555 31.952C2.42379 37.9956 5.58037 42.6401 10.8225 45.8857C13.7536 47.6764 16.9666 48.5717 20.3486 48.6836C22.4906 48.7396 24.5762 48.4598 26.6054 47.9002C26.7182 47.8443 26.8873 47.7883 27 47.6764C28.8038 45.8857 30.6075 44.095 32.3549 42.3603C32.6367 42.0805 32.6367 41.8567 32.4113 41.6329Z" fill="white"/>
<path d="M50.5052 11.6387H24.1816C22.8852 11.6387 21.8142 12.7019 21.8142 13.9889V28.4822C21.8142 29.7692 22.8852 30.8324 24.1816 30.8324H32.0731L30.833 35.3091L37.5971 30.8324H50.4489C51.7453 30.8324 52.8163 29.7692 52.8163 28.4822V13.933C52.8727 12.6459 51.8017 11.6387 50.5052 11.6387ZM41.0355 24.6211H27.5073V21.8231H41.0355V24.6211ZM47.7996 19.0252H27.5073V16.2273H47.7996V19.0252Z" fill="white"/>
</svg>
