<svg width="139" height="139" viewBox="0 0 139 139" fill="none" xmlns="http://www.w3.org/2000/svg">
<path fill-rule="evenodd" clip-rule="evenodd" d="M104.327 58.2019L108.984 19.3167C109.116 18.2066 108.304 17.1679 107.2 17.0346L99.0123 16.045L98.0325 8.35629C97.8913 7.24937 96.8499 6.43784 95.7469 6.58181L91.2163 7.16513V2.05175C91.2163 0.918169 90.3023 0 89.1739 0H2.04241C0.913989 0 0 0.918169 0 2.05175V17.3695C0 18.502 0.913989 19.4212 2.04241 19.4212C3.16977 19.4212 4.08482 18.502 4.08482 17.3695V4.1035H87.1315V118.166H4.08482V27.2166C4.08482 26.0841 3.16977 25.1649 2.04241 25.1649C0.913989 25.1649 0 26.0841 0 27.2166V120.217C0 121.351 0.913989 122.269 2.04241 122.269H4.78119L4.37144 125.691C4.23662 126.816 5.0349 127.838 6.15483 127.973L21.5653 129.836L22.5058 137.21C22.647 138.316 23.6883 139.127 24.7913 138.984C24.7913 138.984 59.681 134.482 59.7797 134.454L92.6632 138.428C93.7672 138.562 94.8022 137.744 94.9349 136.637L95.748 129.851L111.217 127.859C112.336 127.715 113.127 126.687 112.983 125.564L112.904 124.945L112.573 122.359L112.573 122.357C110.861 108.982 104.379 58.3342 104.327 58.2019ZM94.2406 10.9125L94.8308 15.5396L91.2163 15.1023V11.3017L94.2406 10.9125ZM43.3099 132.464L25.7477 130.342L26.2976 134.654L43.3099 132.464ZM91.1229 134.109L8.67068 124.145L8.89467 122.269H89.1739C90.3023 122.269 91.2163 121.351 91.2163 120.217V19.2357L104.685 20.863L91.1229 134.109ZM102.364 74.5967L96.2501 125.649L108.672 124.05L102.364 74.5967Z" fill="white"/>
<path fill-rule="evenodd" clip-rule="evenodd" d="M36.8188 72.2994V74.8478H36.6812C35.5391 74.8478 34.6141 75.7627 34.6141 76.8899V83.4239C34.6141 88.1524 38.5088 92 43.2953 92H47.7047C52.4912 92 56.3859 88.1524 56.3859 83.4239V76.8899C56.3859 75.7627 55.4609 74.8478 54.3188 74.8478H54.1812V72.2994C59.578 69.2426 63 63.4866 63 57.288C63 47.7556 55.1493 40 45.5 40C35.8507 40 28 47.7556 28 57.288C28 63.4866 31.422 69.2426 36.8188 72.2994ZM52.2516 83.4239C52.2516 85.9012 50.2124 87.9157 47.7047 87.9157H43.2953C40.7876 87.9157 38.7484 85.9012 38.7484 83.4239V78.9321H52.2516V83.4239ZM58.8657 57.288C58.8657 50.0069 52.8705 44.0843 45.5 44.0843C38.1295 44.0843 32.1343 50.0069 32.1343 57.288C32.1343 62.3594 35.1319 67.0434 39.7734 69.2213C40.4932 69.5589 40.9531 70.2764 40.9531 71.065V74.8478H43.4404C43.4398 74.8394 43.4391 74.831 43.4385 74.8226C43.4357 74.7861 43.4328 74.749 43.4328 74.712V61.5082H38.8859C37.7438 61.5082 36.8188 60.5932 36.8188 59.466C36.8188 58.3378 37.7438 57.4239 38.8859 57.4239H52.1141C53.2562 57.4239 54.1812 58.3378 54.1812 59.466C54.1812 60.5932 53.2562 61.5082 52.1141 61.5082H47.5672V74.712C47.5672 74.749 47.5643 74.7861 47.5615 74.8226C47.5609 74.831 47.5602 74.8394 47.5596 74.8478H50.0469V71.065C50.0469 70.2764 50.5068 69.5589 51.2266 69.2203C55.867 67.0423 58.8657 62.3583 58.8657 57.288Z" fill="#33BB40"/>
<path fill-rule="evenodd" clip-rule="evenodd" d="M48 34.8224V30.1776C48 28.9756 46.8812 28 45.5 28C44.1188 28 43 28.9756 43 30.1776V34.8224C43 36.0244 44.1188 37 45.5 37C46.8812 37 48 36.0244 48 34.8224Z" fill="#33BB40"/>
<path fill-rule="evenodd" clip-rule="evenodd" d="M35.0454 40C35.377 40 35.7136 39.9103 36.0217 39.7212C36.9573 39.1473 37.2777 37.8762 36.7377 36.8819L34.6509 33.0397C34.1108 32.0454 32.9139 31.7049 31.9783 32.2788C31.0427 32.8538 30.7223 34.1248 31.2623 35.1191L33.3491 38.9603C33.7112 39.6271 34.3692 40 35.0454 40Z" fill="#33BB40"/>
<path fill-rule="evenodd" clip-rule="evenodd" d="M27.9603 43.3513L24.1191 41.2626C23.1237 40.7221 21.8527 41.0427 21.2788 41.9792C20.7049 42.9157 21.0454 44.1137 22.0397 44.6543L25.8809 46.743C26.8633 47.2774 28.1549 46.9496 28.7212 46.0264C29.2951 45.0899 28.9546 43.8918 27.9603 43.3513Z" fill="#33BB40"/>
<path fill-rule="evenodd" clip-rule="evenodd" d="M17 57.5C17 58.8812 17.9745 60 19.1776 60H23.8224C25.0255 60 26 58.8812 26 57.5C26 56.1201 25.0255 55 23.8224 55H19.1776C17.9745 55 17 56.1201 17 57.5Z" fill="#33BB40"/>
<path fill-rule="evenodd" clip-rule="evenodd" d="M25.8809 66.2626L22.0397 68.3513C21.0454 68.8918 20.7049 70.0899 21.2788 71.0264C21.8441 71.9496 23.1367 72.2774 24.1191 71.743L27.9603 69.6543C28.9546 69.1137 29.2951 67.9157 28.7212 66.9792C28.1473 66.0427 26.8752 65.7221 25.8809 66.2626Z" fill="#33BB40"/>
<path fill-rule="evenodd" clip-rule="evenodd" d="M65.1191 66.2626C64.1237 65.7221 62.8527 66.0427 62.2788 66.9792C61.7049 67.9156 62.0454 69.1136 63.0397 69.6541L66.8809 71.7428C67.8633 72.2772 69.1549 71.9504 69.7212 71.0262C70.2951 70.0898 69.9546 68.8917 68.9603 68.3512L65.1191 66.2626Z" fill="#33BB40"/>
<path fill-rule="evenodd" clip-rule="evenodd" d="M73 57.5C73 56.1201 72.0255 55 70.8224 55H66.1776C64.9745 55 64 56.1201 64 57.5C64 58.8812 64.9745 60 66.1776 60H70.8224C72.0255 60 73 58.8812 73 57.5Z" fill="#33BB40"/>
<path fill-rule="evenodd" clip-rule="evenodd" d="M66.8809 41.2626L63.0397 43.3513C62.0454 43.8918 61.7049 45.0899 62.2788 46.0264C62.8451 46.9496 64.1367 47.2774 65.1191 46.743L68.9603 44.6543C69.9546 44.1137 70.2951 42.9157 69.7212 41.9792C69.1473 41.0427 67.8752 40.7221 66.8809 41.2626Z" fill="#33BB40"/>
<path fill-rule="evenodd" clip-rule="evenodd" d="M56.9546 40C57.6308 40 58.2888 39.6271 58.6509 38.9603L60.7377 35.1191C61.2777 34.1248 60.9573 32.8538 60.0217 32.2788C59.0851 31.7049 57.8892 32.0454 57.3491 33.0397L55.2623 36.8819C54.7223 37.8762 55.0427 39.1473 55.9783 39.7212C56.2864 39.9103 56.623 40 56.9546 40Z" fill="#33BB40"/>
<path fill-rule="evenodd" clip-rule="evenodd" d="M138.872 33.6412C138.93 33.7953 138.969 33.9642 138.987 34.1288C138.995 34.2027 139 34.2776 139 34.3536V116.639C139 120.147 136.155 123 132.658 123H128.341C124.845 123 122 120.147 122 116.639V34.3536C122 34.113 122.044 33.866 122.128 33.6412L128.605 16.318C128.901 15.5255 129.657 15 130.499 15C131.343 15 132.099 15.5255 132.395 16.318L138.872 33.6412ZM134.952 108.113V36.3839H126.047V108.113H134.952ZM130.499 22.8121L134.055 32.3232H126.944L130.499 22.8121ZM132.658 118.94C133.923 118.94 134.952 117.908 134.952 116.639V112.173H126.047V116.639C126.047 117.908 127.076 118.94 128.341 118.94H132.658Z" fill="white"/>
</svg>
