<svg width="52" height="43" viewBox="0 0 52 43" fill="none" xmlns="http://www.w3.org/2000/svg">
<g clip-path="url(#clip0)">
<path d="M47.202 37.9689V35.6899C47.202 35.3459 46.8994 35.0449 46.5536 35.0449H30.2145C29.8687 35.0449 29.5661 35.3459 29.5661 35.6899V37.9689C29.5661 38.3129 29.2635 38.6139 28.9177 38.6139H25.3732C25.0274 38.6139 24.7249 38.9149 24.7249 39.2589V42.3979C24.7249 42.7419 25.0274 43.0429 25.3732 43.0429H51.3516C51.6974 43.0429 52 42.7419 52 42.3979V39.2589C52 38.9149 51.6974 38.6139 51.3516 38.6139H47.8071C47.5046 38.6139 47.202 38.3129 47.202 37.9689Z" fill="white"/>
<path d="M45.689 22.183L31.2518 26.698C30.2144 26.999 29.1338 26.4401 28.8312 25.4511C28.5286 24.4191 29.0905 23.344 30.0847 23.043L44.522 18.485C45.5594 18.184 46.64 18.743 46.9426 19.732C47.2884 20.764 46.7264 21.839 45.689 22.183Z" fill="white"/>
<path d="M39.8536 3.69348L25.4163 8.25148C24.3789 8.55248 23.2983 7.99348 22.9957 7.00448C22.6932 5.97248 23.2551 4.89748 24.2493 4.59648L38.6865 0.081483C39.7239 -0.219517 40.8045 0.339483 41.1071 1.32848C41.4529 2.31748 40.8478 3.39248 39.8536 3.69348Z" fill="white"/>
<path d="M26.1512 9.79909L27.3183 13.4971L1.94503 21.4521C0.691494 21.8391 -0.000110388 23.1721 0.388917 24.4191C0.777944 25.6661 2.11793 26.3541 3.37146 25.9671L28.7447 18.0121L29.7821 21.2801L43.7871 16.8941L40.1562 5.41309L26.1512 9.79909Z" fill="white"/>
</g>
<defs>
<clipPath id="clip0">
<rect width="52" height="43" fill="white"/>
</clipPath>
</defs>
</svg>
