<svg width="40" height="40" viewBox="0 0 40 40" fill="none" xmlns="http://www.w3.org/2000/svg">
<path d="M20 0C8.96 0 0 8.96 0 20C0 31.04 8.96 40 20 40C31.04 40 40 31.04 40 20C40 8.96 31.04 0 20 0ZM24.6 8.8C26.92 8.8 28.8 10.68 28.8 13C28.8 15.32 26.92 17.2 24.6 17.2C22.28 17.2 20.4 15.32 20.4 13C20.4 10.68 22.28 8.8 24.6 8.8ZM32.4 31.8C32.24 31.92 32 32 31.8 32C31.48 32 31.2 31.84 31 31.6L26.56 25.44L21.92 31.32C21.72 31.6 21.36 31.72 21.04 31.68C20.72 31.64 20.4 31.44 20.24 31.16L14.84 20.56L8.44 31.2C8.16 31.68 7.56 31.84 7.08 31.56C6.6 31.28 6.44 30.68 6.72 30.2L14.04 18C14.24 17.68 14.56 17.52 14.92 17.52C15.28 17.52 15.6 17.72 15.76 18.08L21.32 28.84L25.8 23.16C26 22.92 26.28 22.76 26.6 22.8C26.92 22.8 27.2 22.96 27.4 23.2L32.6 30.4C32.92 30.88 32.84 31.48 32.4 31.8Z" fill="white"/>
</svg>
