<svg width="75" height="55" viewBox="0 0 75 55" fill="none" xmlns="http://www.w3.org/2000/svg">
<path d="M59.6069 33.4473H12.5364V51.2176H59.6069V33.4473Z" fill="#33BB40"/>
<path d="M59.6292 33.4254H12.5364L16.4125 22.7441H55.753L59.6292 33.4254Z" fill="#33BB40"/>
<path d="M60.1638 33.4006C60.1638 33.3292 60.1638 33.2579 60.1415 33.2103L56.2876 22.5291C56.1985 22.2912 55.998 22.1484 55.7753 22.1484H16.4125C16.1897 22.1484 15.9669 22.2912 15.9001 22.5291L12.024 33.2103C12.0017 33.2817 12.0017 33.3292 12.0017 33.4006C12.0017 33.4244 12.0017 33.4244 12.0017 33.4482V51.2185C12.0017 51.5516 12.2468 51.8132 12.5586 51.8132H59.6291C59.941 51.8132 60.186 51.5516 60.186 51.2185V33.4482C60.186 33.4244 60.186 33.4244 60.1638 33.4006ZM16.7912 23.3379H55.3743L58.8049 32.8297H13.3606L16.7912 23.3379ZM59.0722 50.6238H13.0933V34.0429H59.0499V50.6238H59.0722Z" fill="white"/>
<path d="M52.4561 30.4726H19.7095C19.3976 30.4726 19.1526 30.211 19.1526 29.8779C19.1526 29.5449 19.3976 29.2832 19.7095 29.2832H52.4561C52.768 29.2832 53.013 29.5449 53.013 29.8779C53.013 30.211 52.768 30.4726 52.4561 30.4726Z" fill="white"/>
<path d="M22.9841 29.9268C22.4717 29.9268 22.093 29.57 22.093 29.118V4.09203C22.093 3.64004 22.4717 3.2832 22.9841 3.2832H50.1838C50.4957 3.2832 50.763 3.40215 50.919 3.61625C51.0303 3.75898 51.0749 3.94929 51.0749 4.11582V29.118C51.0749 29.57 50.6962 29.9268 50.1838 29.9268H22.9841Z" fill="white"/>
<path d="M50.1837 3.87695C50.3842 3.87695 50.5402 3.9721 50.5179 4.09105V8.84883V9.5625V12.3934V13.1071V20.6481V21.3618V24.1927V24.9064V29.1408C50.5179 29.2597 50.3842 29.3549 50.1837 29.3549H22.984C22.8058 29.3549 22.6498 29.2597 22.6498 29.1408V24.9064V24.1927V21.338V20.6244V13.0833V12.3696V9.53871V8.82504V4.09105C22.6498 3.9721 22.7835 3.87695 22.984 3.87695H50.1837ZM50.1837 2.6875H22.984C22.182 2.6875 21.536 3.30601 21.536 4.09105V8.82504V9.53871V12.3696V13.0833V20.6481V21.3618V24.1927V24.9064V29.1408C21.536 29.9258 22.182 30.5443 22.984 30.5443H50.1837C50.9857 30.5443 51.6317 29.9258 51.6317 29.1408V24.9064V24.1927V21.338V20.6244V13.0833V12.3696V9.53871V8.82504V4.13862C51.654 3.80558 51.5649 3.49632 51.3644 3.23465C51.0971 2.9016 50.6516 2.6875 50.1837 2.6875Z" fill="white"/>
<path d="M44.4141 8.82422H28.7759V10.7035H44.4141V8.82422Z" fill="#CCCCCC"/>
<path d="M34.1 15.3906H25.969V17.27H34.1V15.3906Z" fill="#CCCCCC"/>
<path d="M47.1987 15.3906H39.0677V17.27H47.1987V15.3906Z" fill="#CCCCCC"/>
<path d="M47.1986 19.5996H25.969V21.4789H47.1986V19.5996Z" fill="#CCCCCC"/>
<path d="M47.1986 23.7871H25.969V25.6664H47.1986V23.7871Z" fill="#CCCCCC"/>
<path d="M61.7901 45.8652C62.1019 45.8652 62.347 46.1269 62.347 46.46V49.7904C62.347 50.1234 62.1019 50.3851 61.7901 50.3851C61.4782 50.3851 61.2332 50.1234 61.2332 49.7904V46.46C61.2332 46.1269 61.4782 45.8652 61.7901 45.8652Z" fill="white"/>
<path d="M20.0437 11.0863C19.7319 11.0863 19.4868 10.8246 19.4868 10.4916V7.16113C19.4868 6.82808 19.7319 6.56641 20.0437 6.56641C20.3556 6.56641 20.6006 6.82808 20.6006 7.16113V10.4916C20.6006 10.8246 20.3556 11.0863 20.0437 11.0863Z" fill="white"/>
<path d="M20.0437 4.87716C19.7319 4.87716 19.4868 4.61548 19.4868 4.28244V1.09472C19.4868 0.761678 19.7319 0.5 20.0437 0.5H26.3035C26.6153 0.5 26.8604 0.761678 26.8604 1.09472C26.8604 1.42777 26.6153 1.68945 26.3035 1.68945H20.6006V4.25865C20.6006 4.5917 20.3556 4.87716 20.0437 4.87716Z" fill="white"/>
<path d="M61.7901 40.7754C61.4782 40.7754 61.2332 41.0371 61.2332 41.3701V43.4873C61.2332 43.8204 61.4782 44.0821 61.7901 44.0821C62.1019 44.0821 62.347 43.8204 62.347 43.4873V41.3701C62.347 41.0371 62.1019 40.7754 61.7901 40.7754Z" fill="white"/>
</svg>
