<svg width="62" height="45" viewBox="0 0 62 45" fill="none" xmlns="http://www.w3.org/2000/svg">
<path d="M16.912 11.7617H1.2157V16.0771H16.912V11.7617Z" fill="#33BB40"/>
<path d="M51.2397 16.076V20.8185L60.1662 14.4737L51.2397 8.12891V11.7606H43.9108V16.076H51.2397Z" fill="#33BB40"/>
<path d="M10.1222 29.7055V24.9629L1.2157 31.3077L10.1222 37.6525V34.0208H16.912V29.7055H10.1222Z" fill="#33BB40"/>
<path d="M60.1662 29.707H43.9108V34.0224H60.1662V29.707Z" fill="#33BB40"/>
<path d="M42.5931 3.15234H18.2099C18.0302 3.15234 17.9104 3.30188 17.9104 3.47279V10.6721V11.7403V16.0556V17.1238V28.5957V29.6639V33.9792V35.0474V41.4776C17.9104 41.6699 18.0502 41.7981 18.2099 41.7981H42.5931C42.7728 41.7981 42.8926 41.6485 42.8926 41.4776V35.0474V33.9792V29.6639V28.5957V17.1451V16.077V11.7616V10.6935V3.47279C42.9126 3.30188 42.7728 3.15234 42.5931 3.15234Z" fill="white"/>
<path d="M60.1667 28.6382H43.9113V17.1449H50.2617V20.8194C50.2617 21.2039 50.4614 21.5671 50.7809 21.7593C50.9207 21.8448 51.1004 21.8875 51.2602 21.8875C51.4599 21.8875 51.6396 21.8234 51.8194 21.7166L60.7259 15.3718C61.0055 15.1795 61.1652 14.8377 61.1652 14.4745C61.1652 14.1114 61.0055 13.7909 60.7259 13.5773L51.8194 7.23248C51.6596 7.1043 51.4599 7.06157 51.2602 7.06157C51.1004 7.06157 50.9407 7.1043 50.7809 7.18975C50.4614 7.38202 50.2617 7.74519 50.2617 8.12972V10.6719H43.9113V3.47258C43.9113 2.70351 43.3322 2.08398 42.6133 2.08398H18.2102C17.4913 2.08398 16.9122 2.70351 16.9122 3.47258V10.6719H1.2159C0.656743 10.6719 0.217407 11.1419 0.217407 11.7401V16.0554C0.217407 16.6536 0.656743 17.1236 1.2159 17.1236H16.9122V28.5955H11.1209V24.9211C11.1209 24.5365 10.9212 24.1734 10.6017 23.9811C10.4619 23.8956 10.2822 23.8529 10.1224 23.8529C9.92273 23.8529 9.743 23.917 9.56327 24.0238L0.656743 30.3686C0.377166 30.5609 0.217407 30.9027 0.217407 31.2659C0.217407 31.6291 0.377166 31.9495 0.656743 32.1631L9.56327 38.508C9.72303 38.6361 9.92273 38.6789 10.1224 38.6789C10.2822 38.6789 10.4419 38.6361 10.6017 38.5507C10.9212 38.3584 11.1209 37.9953 11.1209 37.6107V35.0685H16.8922V41.4988C16.8922 42.2679 17.4713 42.8874 18.1902 42.8874H42.5733C43.2923 42.8874 43.8714 42.2679 43.8714 41.4988V35.0685H60.1268C60.6859 35.0685 61.1253 34.5985 61.1253 34.0004V29.685C61.1652 29.1082 60.7059 28.6382 60.1667 28.6382ZM16.9122 34.0217H10.1224V37.6321L1.2159 31.2873L10.1224 24.9424V29.685H16.8922V34.0217H16.9122ZM16.9122 16.0768H1.2159V11.7614H16.9122V16.0768ZM51.2402 11.7614V8.12972L60.1667 14.4745L51.2602 20.8194V16.0768H43.9113V11.7614H51.2402ZM42.9128 16.0768V17.1449V28.6169V29.685V34.0004V35.0685V41.4988C42.9128 41.6911 42.773 41.8192 42.6133 41.8192H18.2102C18.0305 41.8192 17.9106 41.6697 17.9106 41.4988V35.0685V34.0004V29.685V28.6169V17.1449V16.0768V11.7614V10.6933V3.47258C17.9106 3.28031 18.0504 3.15214 18.2102 3.15214H42.5933C42.773 3.15214 42.8929 3.30168 42.8929 3.47258V10.6719V11.7401V16.0768H42.9128ZM60.1667 34.0217H43.9113V29.7064H60.1667V34.0217Z" fill="white"/>
<path d="M37.4211 7.5957H23.4023V9.28338H37.4211V7.5957Z" fill="#CCCCCC"/>
<path d="M28.1755 13.4902H20.8865V15.1779H28.1755V13.4902Z" fill="#CCCCCC"/>
<path d="M39.9168 13.4902H32.6278V15.1779H39.9168V13.4902Z" fill="#CCCCCC"/>
<path d="M39.937 34.1074H35.7234V35.7951H39.937V34.1074Z" fill="#CCCCCC"/>
<path d="M34.2662 34.1074H30.0526V35.7951H34.2662V34.1074Z" fill="#CCCCCC"/>
<path d="M39.9177 17.2734H20.8865V18.9611H39.9177V17.2734Z" fill="#CCCCCC"/>
<path d="M39.9177 21.0332H20.8865V22.7209H39.9177V21.0332Z" fill="#CCCCCC"/>
<path d="M39.9177 24.8145H20.8865V26.5021H39.9177V24.8145Z" fill="#CCCCCC"/>
<path d="M39.9177 28.5742H20.8865V30.2619H39.9177V28.5742Z" fill="#CCCCCC"/>
<path d="M23.4021 38.7439C24.9241 38.7439 26.1579 37.4239 26.1579 35.7958C26.1579 34.1676 24.9241 32.8477 23.4021 32.8477C21.8801 32.8477 20.6462 34.1676 20.6462 35.7958C20.6462 37.4239 21.8801 38.7439 23.4021 38.7439Z" fill="#CCCCCC"/>
<path d="M15.2739 9.62343C14.9943 9.62343 14.7747 9.38844 14.7747 9.08935V6.09853C14.7747 5.79945 14.9943 5.56445 15.2739 5.56445C15.5535 5.56445 15.7731 5.79945 15.7731 6.09853V9.08935C15.7731 9.38844 15.5535 9.62343 15.2739 9.62343Z" fill="white"/>
<path d="M15.274 4.04994C14.9944 4.04994 14.7748 3.81495 14.7748 3.51586V0.653217C14.7748 0.354134 14.9944 0.119141 15.274 0.119141H20.8855C21.1651 0.119141 21.3848 0.354134 21.3848 0.653217C21.3848 0.952299 21.1651 1.18729 20.8855 1.18729H15.7733V3.4945C15.7733 3.79358 15.5536 4.04994 15.274 4.04994Z" fill="white"/>
<path d="M40.6152 44.8748H36.0022C35.7226 44.8748 35.5029 44.6398 35.5029 44.3407C35.5029 44.0416 35.7226 43.8066 36.0022 43.8066H40.6152C40.8948 43.8066 41.1144 44.0416 41.1144 44.3407C41.1144 44.6398 40.8948 44.8748 40.6152 44.8748Z" fill="white"/>
<path d="M23.8402 44.8748H19.2272C18.9476 44.8748 18.7279 44.6398 18.7279 44.3407C18.7279 44.0416 18.9476 43.8066 19.2272 43.8066H23.8402C24.1197 43.8066 24.3394 44.0416 24.3394 44.3407C24.3394 44.6398 24.1197 44.8748 23.8402 44.8748Z" fill="white"/>
<path d="M26.916 44.8748H25.4183C25.1387 44.8748 24.9191 44.6398 24.9191 44.3407C24.9191 44.0416 25.1387 43.8066 25.4183 43.8066H26.916C27.1956 43.8066 27.4153 44.0416 27.4153 44.3407C27.4153 44.6398 27.1956 44.8748 26.916 44.8748Z" fill="white"/>
<path d="M45.7073 44.8739H43.0514C42.7718 44.8739 42.5521 44.6389 42.5521 44.3398C42.5521 44.0407 42.7718 43.8057 43.0514 43.8057H45.2081V38.3368C45.2081 38.0377 45.4278 37.8027 45.7073 37.8027C45.9869 37.8027 46.2066 38.0377 46.2066 38.3368V44.3398C46.2066 44.6389 45.9869 44.8739 45.7073 44.8739Z" fill="white"/>
</svg>
