<svg width="26" height="26" viewBox="0 0 26 26" fill="none" xmlns="http://www.w3.org/2000/svg">
<path fill-rule="evenodd" clip-rule="evenodd" d="M0 13.7676V26H26V13.7676H0ZM22.9412 16.8257V22.9419H3.05882V16.8257H22.9412Z" fill="white"/>
<path fill-rule="evenodd" clip-rule="evenodd" d="M21.4117 0L4.58813 0.00716741V16.8267H7.64696V3.05838L18.3842 3.0321V3.05838H18.3531V16.8259L21.412 16.8245V0.000405967L21.4117 0Z" fill="white"/>
<path fill-rule="evenodd" clip-rule="evenodd" d="M16.8237 4.58789L9.14526 4.61417V4.58789H9.16748V7.64599H16.8237V4.58789H16.8237Z" fill="white"/>
<path fill-rule="evenodd" clip-rule="evenodd" d="M16.8549 9.17578L9.17651 9.20206V9.17578H9.19873V12.2339H16.855V9.17578H16.8549Z" fill="white"/>
<path fill-rule="evenodd" clip-rule="evenodd" d="M21.4117 18.3555L4.58813 18.3818V18.3555L4.58829 18.3918L4.58813 21.4136H21.4117V18.3555V18.3555Z" fill="white"/>
</svg>
