<svg width="35" height="30" viewBox="0 0 35 30" fill="none" xmlns="http://www.w3.org/2000/svg">
<path d="M32.55 0H19.95C18.5938 0 17.5 0.9375 17.5 2.1V3H2.45C1.09375 3 0 3.9375 0 5.1V9.9375C0 8.775 1.09375 7.8375 2.45 7.8375H17.5V6.9375C17.5 5.775 18.5938 4.8375 19.95 4.8375H32.55C33.9062 4.8375 35 5.775 35 6.9375V5.1V2.1C35 0.9375 33.9062 0 32.55 0Z" fill="white"/>
<path d="M32.55 8.5498H19.95C18.5938 8.5498 17.5 9.4873 17.5 10.6498V11.5498H2.45C1.09375 11.5498 0 12.4873 0 13.6498V19.3123V24.1498V27.8623C0 29.0248 1.09375 29.9623 2.45 29.9623H32.55C33.9062 29.9623 35 29.0248 35 27.8623V24.8623V24.1498V21.1498V19.3123V16.3123V13.6498V10.6498C35 9.4873 33.9062 8.5498 32.55 8.5498Z" fill="white"/>
</svg>
